<svg version="1.1" xmlns="http://www.w3.org/2000/svg" xmlns:xlink="http://www.w3.org/1999/xlink" width="1027" height="2013"><defs/><g><g/><g/><g/><g/><g/><g/><g/><g/><g/><g/><g/><g/><g/><g/><g/><g/><g/><g/><g/><g/><g/><g/><g/><g/><g/><g/><g/><g/><g/><g/><g/><g/><g><rect fill="white" stroke="none" x="0" y="0" width="1027" height="2013"/></g><g><text fill="black" stroke="none" font-family="sans-serif" font-size="16.5pt" font-style="normal" font-weight="normal" text-decoration="normal" x="211.52986466135928" y="24.50280495" text-anchor="start" dominant-baseline="alphabetic" xml:space="preserve">Evaluation with MiniTournamentGenerationEvaluationStrategy</text></g><g/><g><path fill="none" stroke="black" paint-order="fill stroke markers" d=" M 197.8957454333333 95.887643371 L 197.8957454333333 2013.2932395043877" stroke-miterlimit="10" stroke-width="1.3612669416666667" stroke-dasharray="12.565541,5.445067766666667"/><path fill="none" stroke="black" paint-order="fill stroke markers" d=" M 436.7914908666666 95.887643371 L 436.7914908666666 2013.2932395043877" stroke-miterlimit="10" stroke-width="1.3612669416666667" stroke-dasharray="12.565541,5.445067766666667"/><path fill="none" stroke="black" paint-order="fill stroke markers" d=" M 631.0740853276666 95.887643371 L 631.0740853276666 2013.2932395043877" stroke-miterlimit="10" stroke-width="1.3612669416666667" stroke-dasharray="12.565541,5.445067766666667"/><path fill="none" stroke="black" paint-order="fill stroke markers" d=" M 888.6923646443332 95.887643371 L 888.6923646443332 2013.2932395043877" stroke-miterlimit="10" stroke-width="1.3612669416666667" stroke-dasharray="12.565541,5.445067766666667"/></g><g><path fill="none" stroke="none"/><g><path fill="white" stroke="black" paint-order="fill stroke markers" d=" M 94.1720498528333 51.782594461 L 301.6194410138333 51.782594461 L 301.6194410138333 95.887643371 L 94.1720498528333 95.887643371 L 94.1720498528333 51.782594461 Z" stroke-miterlimit="10" stroke-width="2.613632528" stroke-dasharray=""/></g><g><g/><text fill="black" stroke="none" font-family="sans-serif" font-size="11pt" font-style="normal" font-weight="normal" text-decoration="normal" x="111.8957454333333" y="79.55244007099999" text-anchor="start" dominant-baseline="alphabetic" xml:space="preserve">GenerationEvaluationActor</text></g><path fill="none" stroke="none"/><g><path fill="white" stroke="black" paint-order="fill stroke markers" d=" M 355.5677952861666 51.782594461 L 518.0151864471666 51.782594461 L 518.0151864471666 95.887643371 L 355.5677952861666 95.887643371 L 355.5677952861666 51.782594461 Z" stroke-miterlimit="10" stroke-width="2.613632528" stroke-dasharray=""/></g><g><g/><text fill="black" stroke="none" font-family="sans-serif" font-size="11pt" font-style="normal" font-weight="normal" text-decoration="normal" x="373.2914908666666" y="79.55244007099999" text-anchor="start" dominant-baseline="alphabetic" xml:space="preserve">ResultStorageActor</text></g><path fill="none" stroke="none"/><g><path fill="white" stroke="black" paint-order="fill stroke markers" d=" M 534.3503897471666 51.782594461 L 727.7977809081666 51.782594461 L 727.7977809081666 95.887643371 L 534.3503897471666 95.887643371 L 534.3503897471666 51.782594461 Z" stroke-miterlimit="10" stroke-width="2.613632528" stroke-dasharray=""/></g><g><g/><text fill="black" stroke="none" font-family="sans-serif" font-size="11pt" font-style="normal" font-weight="normal" text-decoration="normal" x="552.0740853276666" y="79.55244007099999" text-anchor="start" dominant-baseline="alphabetic" xml:space="preserve">MiniTournamentManager</text></g><path fill="none" stroke="none"/><g><path fill="white" stroke="black" paint-order="fill stroke markers" d=" M 820.4686690638332 51.782594461 L 956.9160602248332 51.782594461 L 956.9160602248332 95.887643371 L 820.4686690638332 95.887643371 L 820.4686690638332 51.782594461 Z" stroke-miterlimit="10" stroke-width="2.613632528" stroke-dasharray=""/></g><g><g/><text fill="black" stroke="none" font-family="sans-serif" font-size="11pt" font-style="normal" font-weight="normal" text-decoration="normal" x="838.1923646443332" y="79.55244007099999" text-anchor="start" dominant-baseline="alphabetic" xml:space="preserve">EvaluationActor</text></g></g><g><path fill="white" stroke="black" paint-order="fill stroke markers" d=" M 189.7281437833333 273.94135934099995 L 206.0633470833333 273.94135934099995 L 206.0633470833333 840.7729138509998 L 189.7281437833333 840.7729138509998 L 189.7281437833333 273.94135934099995" stroke-miterlimit="10" stroke-width="1.3612669416666667" stroke-dasharray=""/><path fill="white" stroke="black" paint-order="fill stroke markers" d=" M 428.6238892166666 425.85875003099994 L 444.9590925166666 425.85875003099994 L 444.9590925166666 471.59731927099995 L 428.6238892166666 471.59731927099995 L 428.6238892166666 425.85875003099994" stroke-miterlimit="10" stroke-width="1.3612669416666667" stroke-dasharray=""/><path fill="white" stroke="black" paint-order="fill stroke markers" d=" M 622.9064836776665 517.3358885109999 L 639.2416869776666 517.3358885109999 L 639.2416869776666 708.4577671209997 L 622.9064836776665 708.4577671209997 L 622.9064836776665 517.3358885109999" stroke-miterlimit="10" stroke-width="1.3612669416666667" stroke-dasharray=""/><path fill="white" stroke="black" paint-order="fill stroke markers" d=" M 880.5247629943332 840.7729138509998 L 896.8599662943333 840.7729138509998 L 896.8599662943333 871.2661629646831 L 880.5247629943332 871.2661629646831 L 880.5247629943332 840.7729138509998" stroke-miterlimit="10" stroke-width="1.3612669416666667" stroke-dasharray=""/><path fill="white" stroke="black" paint-order="fill stroke markers" d=" M 189.7281437833333 903.936569564683 L 206.0633470833333 903.936569564683 L 206.0633470833333 1894.0462554143878 L 189.7281437833333 1894.0462554143878 L 189.7281437833333 903.936569564683" stroke-miterlimit="10" stroke-width="1.3612669416666667" stroke-dasharray=""/><path fill="white" stroke="black" paint-order="fill stroke markers" d=" M 622.9064836776665 993.7801877146829 L 639.2416869776666 993.7801877146829 L 639.2416869776666 1251.876399854683 L 622.9064836776665 1251.876399854683 L 622.9064836776665 993.7801877146829" stroke-miterlimit="10" stroke-width="1.3612669416666667" stroke-dasharray=""/><path fill="white" stroke="black" paint-order="fill stroke markers" d=" M 880.5247629943332 1297.6149690946831 L 896.8599662943333 1297.6149690946831 L 896.8599662943333 1554.2740267743877 L 880.5247629943332 1554.2740267743877 L 880.5247629943332 1297.6149690946831" stroke-miterlimit="10" stroke-width="1.3612669416666667" stroke-dasharray=""/><path fill="white" stroke="black" paint-order="fill stroke markers" d=" M 622.9064836776665 1632.6830026143878 L 639.2416869776666 1632.6830026143878 L 639.2416869776666 1823.8048812243878 L 622.9064836776665 1823.8048812243878 L 622.9064836776665 1632.6830026143878" stroke-miterlimit="10" stroke-width="1.3612669416666667" stroke-dasharray=""/><path fill="white" stroke="black" paint-order="fill stroke markers" d=" M 154.0264608133333 143.259732941 L 154.0264608133333 143.259732941 A 14.70168297 14.70168297 0 0 1 168.7281437833333 128.558049971 L 227.0633470833333 128.558049971 L 227.0633470833333 128.558049971 A 14.70168297 14.70168297 0 0 1 241.7650300533333 143.259732941 L 241.7650300533333 151.42733459099998 L 241.7650300533333 151.42733459099998 A 14.70168297 14.70168297 0 0 1 227.0633470833333 166.12901756099998 L 168.7281437833333 166.12901756099998 L 168.7281437833333 166.12901756099998 A 14.70168297 14.70168297 0 0 1 154.0264608133333 151.42733459099998 L 154.0264608133333 143.259732941" stroke-miterlimit="10" stroke-width="1.3612669416666667" stroke-dasharray=""/><g><text fill="black" stroke="none" font-family="sans-serif" font-size="11pt" font-style="normal" font-weight="normal" text-decoration="normal" x="176.8957454333333" y="151.42733459099995" text-anchor="start" dominant-baseline="alphabetic" xml:space="preserve">Ready</text></g><path fill="white" stroke="black" paint-order="fill stroke markers" d=" M 844.8230800243333 205.333505481 L 844.8230800243333 205.333505481 A 14.70168297 14.70168297 0 0 1 859.5247629943333 190.631822511 L 917.8599662943333 190.631822511 L 917.8599662943333 190.631822511 A 14.70168297 14.70168297 0 0 1 932.5616492643333 205.333505481 L 932.5616492643333 213.50110713099997 L 932.5616492643333 213.50110713099997 A 14.70168297 14.70168297 0 0 1 917.8599662943333 228.20279010099998 L 859.5247629943333 228.20279010099998 L 859.5247629943333 228.20279010099998 A 14.70168297 14.70168297 0 0 1 844.8230800243333 213.50110713099997 L 844.8230800243333 205.333505481" stroke-miterlimit="10" stroke-width="1.3612669416666667" stroke-dasharray=""/><g><text fill="black" stroke="none" font-family="sans-serif" font-size="11pt" font-style="normal" font-weight="normal" text-decoration="normal" x="867.6923646443332" y="213.50110713099994" text-anchor="start" dominant-baseline="alphabetic" xml:space="preserve">Ready</text></g><g><g><rect fill="white" stroke="none" x="27.49759222166665" y="252.70559505099996" width="142.90056099" height="21.23576429"/></g><text fill="blue" stroke="none" font-family="sans-serif" font-size="11pt" font-style="normal" font-weight="normal" text-decoration="normal" x="29.94787271666665" y="267.40727802099997" text-anchor="start" dominant-baseline="alphabetic" xml:space="preserve">GenerationEvaluation</text></g><g><path fill="none" stroke="blue" paint-order="fill stroke markers" d=" M 8.16760165 273.94135934099995 L 176.27882639966663 273.94135934099995" stroke-miterlimit="10" stroke-width="1.3612669416666667" stroke-dasharray=""/><g transform="translate(189.7281437833333,273.94135934099995) translate(-189.7281437833333,-273.94135934099995)"><path fill="blue" stroke="none" paint-order="stroke fill markers" d=" M 176.11547436666663 267.1350246326666 L 189.7281437833333 273.94135934099995 L 176.11547436666663 280.7476940493333 Z"/></g></g><path fill="white" stroke="black" paint-order="fill stroke markers" d=" M 79.0264608133333 313.1458472609999 L 79.0264608133333 313.1458472609999 A 14.70168297 14.70168297 0 0 1 93.72814378333331 298.44416429099994 L 302.0633470833333 298.44416429099994 L 302.0633470833333 298.44416429099994 A 14.70168297 14.70168297 0 0 1 316.7650300533333 313.1458472609999 L 316.7650300533333 321.31344891099997 L 316.7650300533333 321.31344891099997 A 14.70168297 14.70168297 0 0 1 302.0633470833333 336.01513188099995 L 93.72814378333331 336.01513188099995 L 93.72814378333331 336.01513188099995 A 14.70168297 14.70168297 0 0 1 79.0264608133333 321.31344891099997 L 79.0264608133333 313.1458472609999" stroke-miterlimit="10" stroke-width="1.3612669416666667" stroke-dasharray=""/><g><text fill="black" stroke="none" font-family="sans-serif" font-size="11pt" font-style="normal" font-weight="normal" text-decoration="normal" x="101.8957454333333" y="321.3134489109999" text-anchor="start" dominant-baseline="alphabetic" xml:space="preserve">FetchingResultsFromStorage</text></g><g><g><rect fill="white" stroke="none" x="225.39333765499995" y="404.6229857409999" width="183.90056099" height="21.23576429"/></g><text fill="blue" stroke="none" font-family="sans-serif" font-size="11pt" font-style="normal" font-weight="normal" text-decoration="normal" x="227.84361814999994" y="419.3246687109999" text-anchor="start" dominant-baseline="alphabetic" xml:space="preserve">GenomeResultsRequest(g)</text></g><g><path fill="none" stroke="blue" paint-order="fill stroke markers" d=" M 206.0633470833333 425.85875003099994 L 415.17457183299996 425.85875003099994" stroke-miterlimit="10" stroke-width="1.3612669416666667" stroke-dasharray=""/><g transform="translate(428.6238892166666,425.85875003099994) translate(-428.6238892166666,-425.85875003099994)"><path fill="blue" stroke="none" paint-order="stroke fill markers" d=" M 415.01121979999994 419.0524153226666 L 428.6238892166666 425.85875003099994 L 415.01121979999994 432.6650847393333 Z"/></g></g><g><g><rect fill="white" stroke="none" x="252.89333765499995" y="450.3615549809999" width="128.90056099" height="21.23576429"/></g><text fill="blue" stroke="none" font-family="sans-serif" font-size="11pt" font-style="normal" font-weight="normal" text-decoration="normal" x="255.34361814999994" y="465.0632379509999" text-anchor="start" dominant-baseline="alphabetic" xml:space="preserve">GenomeResults(g)</text></g><g><path fill="none" stroke="blue" paint-order="fill stroke markers" d=" M 428.6238892166666 471.59731927099995 L 219.51266446699998 471.59731927099995" stroke-miterlimit="10" stroke-width="1.3612669416666667" stroke-dasharray="6.53408132"/><g transform="translate(206.0633470833333,471.59731927099995) translate(-206.0633470833333,-471.59731927099995)"><path fill="blue" stroke="none" paint-order="stroke fill markers" d=" M 219.67601649999997 464.7909845626666 L 206.0633470833333 471.59731927099995 L 219.67601649999997 478.4036539793333 Z"/></g></g><g><g><rect fill="white" stroke="none" x="306.03463488549994" y="496.1001242209999" width="216.90056099" height="21.23576429"/></g><text fill="black" stroke="none" font-family="sans-serif" font-size="11pt" font-style="normal" font-weight="normal" text-decoration="normal" x="308.48491538049996" y="510.80180719099985" text-anchor="start" dominant-baseline="alphabetic" xml:space="preserve">Update GenomeStats(g,Results)</text></g><g><path fill="none" stroke="black" paint-order="fill stroke markers" d=" M 206.0633470833333 517.3358885109999 L 609.4571662939999 517.3358885109999" stroke-miterlimit="10" stroke-width="1.3612669416666667" stroke-dasharray=""/><g transform="translate(622.9064836776665,517.3358885109999) translate(-622.9064836776665,-517.3358885109999)"><path fill="black" stroke="none" paint-order="stroke fill markers" d=" M 609.2938142609999 510.52955380266656 L 622.9064836776665 517.3358885109999 L 609.2938142609999 524.1422232193332 Z"/></g></g><path fill="white" stroke="black" paint-order="fill stroke markers" d=" M 639.2416869776666 560.6241772559998 L 647.4092886276667 560.6241772559998 M 647.4092886276667 541.8386934609998 L 755.4461748976667 541.8386934609998 L 770.1478578676666 556.5403764309998 L 770.1478578676666 579.4096610509998 L 647.4092886276667 579.4096610509998 L 647.4092886276667 541.8386934609998 M 755.4461748976667 541.8386934609998 L 755.4461748976667 556.5403764309998 L 770.1478578676666 556.5403764309998" stroke-miterlimit="10" stroke-width="1.3612669416666667" stroke-dasharray=""/><g><text fill="black" stroke="none" font-family="sans-serif" font-size="11pt" font-style="normal" font-weight="normal" text-decoration="normal" x="670.2785732476666" y="564.7079780809999" text-anchor="start" dominant-baseline="alphabetic" xml:space="preserve">cf. UML 003</text></g><g><g><rect fill="white" stroke="none" x="658.5716775493333" y="603.9124660009998" width="199.90056099" height="21.23576429"/></g><g><rect fill="white" stroke="none" x="658.5716775493333" y="620.2476693009997" width="191.90056099" height="21.23576429"/></g><text fill="black" stroke="none" font-family="sans-serif" font-size="11pt" font-style="normal" font-weight="normal" text-decoration="normal" x="661.0219580443334" y="618.6141489709997" text-anchor="start" dominant-baseline="alphabetic" xml:space="preserve">Update GenomePriorityQueue</text><text fill="black" stroke="none" font-family="sans-serif" font-size="11pt" font-style="normal" font-weight="normal" text-decoration="normal" x="661.0219580443334" y="634.9493522709997" text-anchor="start" dominant-baseline="alphabetic" xml:space="preserve">[+ check for racing condition]</text></g><g><path fill="none" stroke="black" paint-order="fill stroke markers" d=" M 639.2416869776666 641.4834335909998 L 704.5825001776666 641.4834335909998 L 704.5825001776666 662.7191978809998 L 652.6910043613333 662.7191978809998" stroke-miterlimit="10" stroke-width="1.3612669416666667" stroke-dasharray=""/><g transform="translate(639.2416869776666,662.7191978809998) translate(-639.2416869776666,-662.7191978809998)"><path fill="black" stroke="none" paint-order="stroke fill markers" d=" M 652.8543563943333 655.9128631726664 L 639.2416869776666 662.7191978809998 L 652.8543563943333 669.5255325893331 Z"/></g></g><g><g><rect fill="white" stroke="none" x="412.03463488549994" y="687.2220028309997" width="4.90056099" height="21.23576429"/></g><text fill="black" stroke="none" font-family="sans-serif" font-size="11pt" font-style="normal" font-weight="normal" text-decoration="normal" x="414.48491538049996" y="701.9236858009997" text-anchor="start" dominant-baseline="alphabetic" xml:space="preserve"></text></g><g><path fill="none" stroke="black" paint-order="fill stroke markers" d=" M 622.9064836776665 708.4577671209997 L 219.51266446699998 708.4577671209997" stroke-miterlimit="10" stroke-width="1.3612669416666667" stroke-dasharray="6.53408132"/><g transform="translate(206.0633470833333,708.4577671209997) translate(-206.0633470833333,-708.4577671209997)"><path fill="black" stroke="none" paint-order="stroke fill markers" d=" M 219.67601649999997 701.6514324126664 L 206.0633470833333 708.4577671209997 L 219.67601649999997 715.2641018293331 Z"/></g></g><path fill="white" stroke="black" paint-order="fill stroke markers" d=" M 148.0264608133333 772.1650599909998 L 148.0264608133333 772.1650599909998 A 14.70168297 14.70168297 0 0 1 162.7281437833333 757.4633770209998 L 233.0633470833333 757.4633770209998 L 233.0633470833333 757.4633770209998 A 14.70168297 14.70168297 0 0 1 247.7650300533333 772.1650599909998 L 247.7650300533333 780.3326616409998 L 247.7650300533333 780.3326616409998 A 14.70168297 14.70168297 0 0 1 233.0633470833333 795.0343446109998 L 162.7281437833333 795.0343446109998 L 162.7281437833333 795.0343446109998 A 14.70168297 14.70168297 0 0 1 148.0264608133333 780.3326616409998 L 148.0264608133333 772.1650599909998" stroke-miterlimit="10" stroke-width="1.3612669416666667" stroke-dasharray=""/><g><text fill="black" stroke="none" font-family="sans-serif" font-size="11pt" font-style="normal" font-weight="normal" text-decoration="normal" x="170.8957454333333" y="780.3326616409998" text-anchor="start" dominant-baseline="alphabetic" xml:space="preserve">Working</text></g><g><g><rect fill="white" stroke="none" x="528.8437745438332" y="819.5371495609998" width="28.90056099" height="21.23576429"/></g><text fill="blue" stroke="none" font-family="sans-serif" font-size="11pt" font-style="normal" font-weight="normal" text-decoration="normal" x="531.2940550388332" y="834.2388325309997" text-anchor="start" dominant-baseline="alphabetic" xml:space="preserve">Poll</text></g><g><path fill="none" stroke="blue" paint-order="fill stroke markers" d=" M 206.0633470833333 840.7729138509998 L 867.0754456106665 840.7729138509998" stroke-miterlimit="10" stroke-width="1.3612669416666667" stroke-dasharray=""/><g transform="translate(880.5247629943332,840.7729138509998) translate(-880.5247629943332,-840.7729138509998)"><path fill="blue" stroke="none" paint-order="stroke fill markers" d=" M 866.9120935776665 833.9665791426664 L 880.5247629943332 840.7729138509998 L 866.9120935776665 847.5792485593331 Z"/></g></g><g><g><rect fill="white" stroke="none" x="518.3437745438332" y="865.2757188009998" width="49.90056099" height="21.23576429"/></g><text fill="blue" stroke="none" font-family="sans-serif" font-size="11pt" font-style="normal" font-weight="normal" text-decoration="normal" x="520.7940550388332" y="879.9774017709998" text-anchor="start" dominant-baseline="alphabetic" xml:space="preserve">Accept</text></g><g><path fill="none" stroke="blue" paint-order="fill stroke markers" d=" M 880.5247629943332 871.2661629646831 L 219.49691370142227 903.2858576438116" stroke-miterlimit="10" stroke-width="1.3612669416666667" stroke-dasharray="6.53408132"/><g transform="translate(206.0633470833333,903.936569564683) rotate(-2.7731970932298253,0,0) translate(-206.0633470833333,-903.936569564683)"><path fill="blue" stroke="none" paint-order="stroke fill markers" d=" M 219.67601649999997 897.1302348563497 L 206.0633470833333 903.936569564683 L 219.67601649999997 910.7429042730164 Z"/><g transform="rotate(2.7731970932298253,0,0)"/></g></g><g><g><rect fill="white" stroke="none" x="350.53463488549994" y="972.5444234246829" width="127.90056099" height="21.23576429"/></g><text fill="black" stroke="none" font-family="sans-serif" font-size="11pt" font-style="normal" font-weight="normal" text-decoration="normal" x="352.98491538049996" y="987.2461063946829" text-anchor="start" dominant-baseline="alphabetic" xml:space="preserve">Get next evaluation</text></g><g><path fill="none" stroke="black" paint-order="fill stroke markers" d=" M 206.0633470833333 993.7801877146829 L 609.4571662939999 993.7801877146829" stroke-miterlimit="10" stroke-width="1.3612669416666667" stroke-dasharray=""/><g transform="translate(622.9064836776665,993.7801877146829) translate(-622.9064836776665,-993.7801877146829)"><path fill="black" stroke="none" paint-order="stroke fill markers" d=" M 609.2938142609999 986.9738530063496 L 622.9064836776665 993.7801877146829 L 609.2938142609999 1000.5865224230163 Z"/></g></g><path fill="white" stroke="black" paint-order="fill stroke markers" d=" M 639.2416869776666 1037.068476459683 L 647.4092886276667 1037.068476459683 M 647.4092886276667 1018.282992664683 L 755.4461748976667 1018.282992664683 L 770.1478578676666 1032.984675634683 L 770.1478578676666 1055.853960254683 L 647.4092886276667 1055.853960254683 L 647.4092886276667 1018.282992664683 M 755.4461748976667 1018.282992664683 L 755.4461748976667 1032.984675634683 L 770.1478578676666 1032.984675634683" stroke-miterlimit="10" stroke-width="1.3612669416666667" stroke-dasharray=""/><g><text fill="black" stroke="none" font-family="sans-serif" font-size="11pt" font-style="normal" font-weight="normal" text-decoration="normal" x="670.2785732476666" y="1041.1522772846831" text-anchor="start" dominant-baseline="alphabetic" xml:space="preserve">cf. UML 004</text></g><g><g><rect fill="white" stroke="none" x="658.5716775493333" y="1080.3567652046831" width="89.90056099" height="21.23576429"/></g><g><rect fill="white" stroke="none" x="658.5716775493333" y="1096.6919685046832" width="149.90056099" height="21.23576429"/></g><text fill="black" stroke="none" font-family="sans-serif" font-size="11pt" font-style="normal" font-weight="normal" text-decoration="normal" x="661.0219580443334" y="1095.0584481746832" text-anchor="start" dominant-baseline="alphabetic" xml:space="preserve">Pop next GIP</text><text fill="black" stroke="none" font-family="sans-serif" font-size="11pt" font-style="normal" font-weight="normal" text-decoration="normal" x="661.0219580443334" y="1111.3936514746833" text-anchor="start" dominant-baseline="alphabetic" xml:space="preserve">[GenomeInstancePair]</text></g><g><path fill="none" stroke="black" paint-order="fill stroke markers" d=" M 639.2416869776666 1117.9277327946832 L 704.5825001776666 1117.9277327946832 L 704.5825001776666 1139.163497084683 L 652.6910043613333 1139.163497084683" stroke-miterlimit="10" stroke-width="1.3612669416666667" stroke-dasharray=""/><g transform="translate(639.2416869776666,1139.163497084683) translate(-639.2416869776666,-1139.163497084683)"><path fill="black" stroke="none" paint-order="stroke fill markers" d=" M 652.8543563943333 1132.3571623763498 L 639.2416869776666 1139.163497084683 L 652.8543563943333 1145.9698317930163 Z"/></g></g><g><g><rect fill="white" stroke="none" x="658.5716775493333" y="1163.666302034683" width="199.90056099" height="21.23576429"/></g><text fill="black" stroke="none" font-family="sans-serif" font-size="11pt" font-style="normal" font-weight="normal" text-decoration="normal" x="661.0219580443334" y="1178.367985004683" text-anchor="start" dominant-baseline="alphabetic" xml:space="preserve">Update GenomePriorityQueue</text></g><g><path fill="none" stroke="black" paint-order="fill stroke markers" d=" M 639.2416869776666 1184.9020663246831 L 704.5825001776666 1184.9020663246831 L 704.5825001776666 1206.137830614683 L 652.6910043613333 1206.137830614683" stroke-miterlimit="10" stroke-width="1.3612669416666667" stroke-dasharray=""/><g transform="translate(639.2416869776666,1206.137830614683) translate(-639.2416869776666,-1206.137830614683)"><path fill="black" stroke="none" paint-order="stroke fill markers" d=" M 652.8543563943333 1199.3314959063498 L 639.2416869776666 1206.137830614683 L 652.8543563943333 1212.9441653230163 Z"/></g></g><g><g><rect fill="white" stroke="none" x="400.03463488549994" y="1230.6406355646832" width="28.90056099" height="21.23576429"/></g><text fill="black" stroke="none" font-family="sans-serif" font-size="11pt" font-style="normal" font-weight="normal" text-decoration="normal" x="402.48491538049996" y="1245.3423185346833" text-anchor="start" dominant-baseline="alphabetic" xml:space="preserve">GIP</text></g><g><path fill="none" stroke="black" paint-order="fill stroke markers" d=" M 622.9064836776665 1251.876399854683 L 219.51266446699998 1251.876399854683" stroke-miterlimit="10" stroke-width="1.3612669416666667" stroke-dasharray="6.53408132"/><g transform="translate(206.0633470833333,1251.876399854683) translate(-206.0633470833333,-1251.876399854683)"><path fill="black" stroke="none" paint-order="stroke fill markers" d=" M 219.67601649999997 1245.0700651463499 L 206.0633470833333 1251.876399854683 L 219.67601649999997 1258.6827345630163 Z"/></g></g><g><g><rect fill="white" stroke="none" x="421.8437745438332" y="1276.3792048046832" width="242.90056099" height="21.23576429"/></g><text fill="blue" stroke="none" font-family="sans-serif" font-size="11pt" font-style="normal" font-weight="normal" text-decoration="normal" x="424.2940550388332" y="1291.0808877746833" text-anchor="start" dominant-baseline="alphabetic" xml:space="preserve">GenomeInstancePairEvaluation(GIP)</text></g><g><path fill="none" stroke="blue" paint-order="fill stroke markers" d=" M 206.0633470833333 1297.6149690946831 L 867.0754456106665 1297.6149690946831" stroke-miterlimit="10" stroke-width="1.3612669416666667" stroke-dasharray=""/><g transform="translate(880.5247629943332,1297.6149690946831) translate(-880.5247629943332,-1297.6149690946831)"><path fill="blue" stroke="none" paint-order="stroke fill markers" d=" M 866.9120935776665 1290.80863438635 L 880.5247629943332 1297.6149690946831 L 866.9120935776665 1304.4213038030164 Z"/></g></g><path fill="white" stroke="black" paint-order="fill stroke markers" d=" M 832.3230800243333 1336.8194570146832 L 832.3230800243333 1336.8194570146832 A 14.70168297 14.70168297 0 0 1 847.0247629943333 1322.117774044683 L 930.3599662943333 1322.117774044683 L 930.3599662943333 1322.117774044683 A 14.70168297 14.70168297 0 0 1 945.0616492643333 1336.8194570146832 L 945.0616492643333 1344.987058664683 L 945.0616492643333 1344.987058664683 A 14.70168297 14.70168297 0 0 1 930.3599662943333 1359.688741634683 L 847.0247629943333 1359.688741634683 L 847.0247629943333 1359.688741634683 A 14.70168297 14.70168297 0 0 1 832.3230800243333 1344.987058664683 L 832.3230800243333 1336.8194570146832" stroke-miterlimit="10" stroke-width="1.3612669416666667" stroke-dasharray=""/><g><text fill="black" stroke="none" font-family="sans-serif" font-size="11pt" font-style="normal" font-weight="normal" text-decoration="normal" x="855.1923646443332" y="1344.9870586646832" text-anchor="start" dominant-baseline="alphabetic" xml:space="preserve">Evaluating</text></g><g><g><rect fill="white" stroke="none" x="916.189956866" y="1384.191546584683" width="88.90056099" height="21.23576429"/></g><text fill="black" stroke="none" font-family="sans-serif" font-size="11pt" font-style="normal" font-weight="normal" text-decoration="normal" x="918.640237361" y="1398.893229554683" text-anchor="start" dominant-baseline="alphabetic" xml:space="preserve">Evaluate GIP</text></g><g><path fill="none" stroke="black" paint-order="fill stroke markers" d=" M 896.8599662943333 1405.4273108746831 L 962.2007794943332 1405.4273108746831 L 962.2007794943332 1426.663075164683 L 908.8894014626726 1453.3187641805134" stroke-miterlimit="10" stroke-width="1.3612669416666667" stroke-dasharray=""/><g transform="translate(896.8599662943333,1459.333481764683) rotate(-26.56505117707799,0,0) translate(-896.8599662943333,-1459.333481764683)"><path fill="black" stroke="none" paint-order="stroke fill markers" d=" M 910.472635711 1452.5271470563498 L 896.8599662943333 1459.333481764683 L 910.472635711 1466.1398164730163 Z"/><g transform="rotate(26.56505117707799,0,0)"/></g></g><path fill="white" stroke="black" paint-order="fill stroke markers" d=" M 844.8230800243333 1498.537969684683 L 844.8230800243333 1498.537969684683 A 14.70168297 14.70168297 0 0 1 859.5247629943333 1483.836286714683 L 917.8599662943333 1483.836286714683 L 917.8599662943333 1483.836286714683 A 14.70168297 14.70168297 0 0 1 932.5616492643333 1498.537969684683 L 932.5616492643333 1506.7055713346829 L 932.5616492643333 1506.7055713346829 A 14.70168297 14.70168297 0 0 1 917.8599662943333 1521.407254304683 L 859.5247629943333 1521.407254304683 L 859.5247629943333 1521.407254304683 A 14.70168297 14.70168297 0 0 1 844.8230800243333 1506.7055713346829 L 844.8230800243333 1498.537969684683" stroke-miterlimit="10" stroke-width="1.3612669416666667" stroke-dasharray=""/><g><text fill="black" stroke="none" font-family="sans-serif" font-size="11pt" font-style="normal" font-weight="normal" text-decoration="normal" x="867.6923646443332" y="1506.705571334683" text-anchor="start" dominant-baseline="alphabetic" xml:space="preserve">Ready</text></g><g><g><rect fill="white" stroke="none" x="469.3437745438332" y="1545.9100592546831" width="147.90056099" height="21.23576429"/></g><text fill="blue" stroke="none" font-family="sans-serif" font-size="11pt" font-style="normal" font-weight="normal" text-decoration="normal" x="471.7940550388332" y="1560.6117422246832" text-anchor="start" dominant-baseline="alphabetic" xml:space="preserve">EvaluationResult(GIP)</text></g><g><path fill="none" stroke="blue" paint-order="fill stroke markers" d=" M 880.5247629943332 1554.2740267743877 L 219.49691370142227 1586.2937214535161" stroke-miterlimit="10" stroke-width="1.3612669416666667" stroke-dasharray="6.53408132"/><g transform="translate(206.0633470833333,1586.9444333743877) rotate(-2.7731970932298253,0,0) translate(-206.0633470833333,-1586.9444333743877)"><path fill="blue" stroke="none" paint-order="stroke fill markers" d=" M 219.67601649999997 1580.1380986660545 L 206.0633470833333 1586.9444333743877 L 219.67601649999997 1593.750768082721 Z"/><g transform="rotate(2.7731970932298253,0,0)"/></g></g><g><g><rect fill="white" stroke="none" x="303.03463488549994" y="1611.4472383243879" width="222.90056099" height="21.23576429"/></g><text fill="black" stroke="none" font-family="sans-serif" font-size="11pt" font-style="normal" font-weight="normal" text-decoration="normal" x="305.48491538049996" y="1626.148921294388" text-anchor="start" dominant-baseline="alphabetic" xml:space="preserve">Update GenomeStats(GIP,Result)</text></g><g><path fill="none" stroke="black" paint-order="fill stroke markers" d=" M 206.0633470833333 1632.6830026143878 L 609.4571662939999 1632.6830026143878" stroke-miterlimit="10" stroke-width="1.3612669416666667" stroke-dasharray=""/><g transform="translate(622.9064836776665,1632.6830026143878) translate(-622.9064836776665,-1632.6830026143878)"><path fill="black" stroke="none" paint-order="stroke fill markers" d=" M 609.2938142609999 1625.8766679060545 L 622.9064836776665 1632.6830026143878 L 609.2938142609999 1639.489337322721 Z"/></g></g><path fill="white" stroke="black" paint-order="fill stroke markers" d=" M 639.2416869776666 1675.9712913593878 L 647.4092886276667 1675.9712913593878 M 647.4092886276667 1657.1858075643877 L 755.4461748976667 1657.1858075643877 L 770.1478578676666 1671.8874905343878 L 770.1478578676666 1694.7567751543877 L 647.4092886276667 1694.7567751543877 L 647.4092886276667 1657.1858075643877 M 755.4461748976667 1657.1858075643877 L 755.4461748976667 1671.8874905343878 L 770.1478578676666 1671.8874905343878" stroke-miterlimit="10" stroke-width="1.3612669416666667" stroke-dasharray=""/><g><text fill="black" stroke="none" font-family="sans-serif" font-size="11pt" font-style="normal" font-weight="normal" text-decoration="normal" x="670.2785732476666" y="1680.0550921843878" text-anchor="start" dominant-baseline="alphabetic" xml:space="preserve">cf. UML 003</text></g><g><g><rect fill="white" stroke="none" x="658.5716775493333" y="1719.2595801043879" width="199.90056099" height="21.23576429"/></g><g><rect fill="white" stroke="none" x="658.5716775493333" y="1735.594783404388" width="191.90056099" height="21.23576429"/></g><text fill="black" stroke="none" font-family="sans-serif" font-size="11pt" font-style="normal" font-weight="normal" text-decoration="normal" x="661.0219580443334" y="1733.961263074388" text-anchor="start" dominant-baseline="alphabetic" xml:space="preserve">Update GenomePriorityQueue</text><text fill="black" stroke="none" font-family="sans-serif" font-size="11pt" font-style="normal" font-weight="normal" text-decoration="normal" x="661.0219580443334" y="1750.296466374388" text-anchor="start" dominant-baseline="alphabetic" xml:space="preserve">[+ check for racing condition]</text></g><g><path fill="none" stroke="black" paint-order="fill stroke markers" d=" M 639.2416869776666 1756.8305476943879 L 704.5825001776666 1756.8305476943879 L 704.5825001776666 1778.0663119843878 L 652.6910043613333 1778.0663119843878" stroke-miterlimit="10" stroke-width="1.3612669416666667" stroke-dasharray=""/><g transform="translate(639.2416869776666,1778.0663119843878) translate(-639.2416869776666,-1778.0663119843878)"><path fill="black" stroke="none" paint-order="stroke fill markers" d=" M 652.8543563943333 1771.2599772760545 L 639.2416869776666 1778.0663119843878 L 652.8543563943333 1784.872646692721 Z"/></g></g><g><g><rect fill="white" stroke="none" x="412.03463488549994" y="1802.569116934388" width="4.90056099" height="21.23576429"/></g><text fill="black" stroke="none" font-family="sans-serif" font-size="11pt" font-style="normal" font-weight="normal" text-decoration="normal" x="414.48491538049996" y="1817.270799904388" text-anchor="start" dominant-baseline="alphabetic" xml:space="preserve"></text></g><g><path fill="none" stroke="black" paint-order="fill stroke markers" d=" M 622.9064836776665 1823.8048812243878 L 219.51266446699998 1823.8048812243878" stroke-miterlimit="10" stroke-width="1.3612669416666667" stroke-dasharray="6.53408132"/><g transform="translate(206.0633470833333,1823.8048812243878) translate(-206.0633470833333,-1823.8048812243878)"><path fill="black" stroke="none" paint-order="stroke fill markers" d=" M 219.67601649999997 1816.9985465160546 L 206.0633470833333 1823.8048812243878 L 219.67601649999997 1830.611215932721 Z"/></g></g><g><g><rect fill="white" stroke="none" x="61.99759222166665" y="1872.810491124388" width="73.90056099" height="21.23576429"/></g><text fill="blue" stroke="none" font-family="sans-serif" font-size="11pt" font-style="normal" font-weight="normal" text-decoration="normal" x="64.44787271666665" y="1887.512174094388" text-anchor="start" dominant-baseline="alphabetic" xml:space="preserve">GgaResult</text></g><g><path fill="none" stroke="blue" paint-order="fill stroke markers" d=" M 189.7281437833333 1894.0462554143878 L 21.61691903366667 1894.0462554143878" stroke-miterlimit="10" stroke-width="1.3612669416666667" stroke-dasharray="6.53408132"/><g transform="translate(8.16760165,1894.0462554143878) translate(-8.16760165,-1894.0462554143878)"><path fill="blue" stroke="none" paint-order="stroke fill markers" d=" M 21.780271066666668 1887.2399207060546 L 8.16760165 1894.0462554143878 L 21.780271066666668 1900.852590122721 Z"/></g></g><path fill="white" stroke="black" paint-order="fill stroke markers" d=" M 154.0264608133333 1933.2507433343878 L 154.0264608133333 1933.2507433343878 A 14.70168297 14.70168297 0 0 1 168.7281437833333 1918.5490603643877 L 227.0633470833333 1918.5490603643877 L 227.0633470833333 1918.5490603643877 A 14.70168297 14.70168297 0 0 1 241.7650300533333 1933.2507433343878 L 241.7650300533333 1941.4183449843877 L 241.7650300533333 1941.4183449843877 A 14.70168297 14.70168297 0 0 1 227.0633470833333 1956.1200279543878 L 168.7281437833333 1956.1200279543878 L 168.7281437833333 1956.1200279543878 A 14.70168297 14.70168297 0 0 1 154.0264608133333 1941.4183449843877 L 154.0264608133333 1933.2507433343878" stroke-miterlimit="10" stroke-width="1.3612669416666667" stroke-dasharray=""/><g><text fill="black" stroke="none" font-family="sans-serif" font-size="11pt" font-style="normal" font-weight="normal" text-decoration="normal" x="176.8957454333333" y="1941.4183449843879" text-anchor="start" dominant-baseline="alphabetic" xml:space="preserve">Ready</text></g><g><g/><path fill="none" stroke="black" paint-order="fill stroke markers" d=" M 132.55493223333332 360.51793683099993 L 864.1895596943334 360.51793683099993 L 864.1895596943334 732.9605720709998 L 132.55493223333332 732.9605720709998 L 132.55493223333332 360.51793683099993 Z" stroke-miterlimit="10" stroke-width="2.3336004714285714" stroke-dasharray=""/><path fill="white" stroke="black" paint-order="fill stroke markers" d=" M 132.55493223333332 360.51793683099993 L 132.55493223333332 380.12018079099994 L 189.22533883333332 380.12018079099994 L 199.02646081333333 370.31905881099993 L 199.02646081333333 360.51793683099993 L 132.55493223333332 360.51793683099993" stroke-miterlimit="10" stroke-width="2.3336004714285714" stroke-dasharray=""/><text fill="black" stroke="none" font-family="sans-serif" font-size="8.8pt" font-style="normal" font-weight="bold" text-decoration="normal" x="148.8901355333333" y="373.58609947099995" text-anchor="start" dominant-baseline="alphabetic" xml:space="preserve">loop</text><text fill="black" stroke="none" font-family="sans-serif" font-size="8.8pt" font-style="normal" font-weight="bold" text-decoration="normal" x="215.36166411333332" y="373.58609947099995" text-anchor="start" dominant-baseline="alphabetic" xml:space="preserve">[FORALL g in Genomes]</text></g><g><g/><path fill="none" stroke="black" paint-order="fill stroke markers" d=" M 132.55493223333332 928.439374514683 L 1010.8078390109999 928.439374514683 L 1010.8078390109999 1848.3076861743878 L 132.55493223333332 1848.3076861743878 L 132.55493223333332 928.439374514683 Z" stroke-miterlimit="10" stroke-width="2.3336004714285714" stroke-dasharray=""/><path fill="white" stroke="black" paint-order="fill stroke markers" d=" M 132.55493223333332 928.439374514683 L 132.55493223333332 948.041618474683 L 189.22533883333332 948.041618474683 L 199.02646081333333 938.2404964946829 L 199.02646081333333 928.439374514683 L 132.55493223333332 928.439374514683" stroke-miterlimit="10" stroke-width="2.3336004714285714" stroke-dasharray=""/><text fill="black" stroke="none" font-family="sans-serif" font-size="8.8pt" font-style="normal" font-weight="bold" text-decoration="normal" x="148.8901355333333" y="941.507537154683" text-anchor="start" dominant-baseline="alphabetic" xml:space="preserve">loop</text><text fill="black" stroke="none" font-family="sans-serif" font-size="8.8pt" font-style="normal" font-weight="bold" text-decoration="normal" x="215.36166411333332" y="941.507537154683" text-anchor="start" dominant-baseline="alphabetic" xml:space="preserve">[WHILE NOT IsGenerationFinished]</text></g></g><g/><g/><g/><g/></g></svg>