<svg version="1.1" xmlns="http://www.w3.org/2000/svg" xmlns:xlink="http://www.w3.org/1999/xlink" width="1027" height="1951"><desc>%2F%2F%20https%3A%2F%2Fsequencediagram.org%2F%0Atitle%20Evaluation%20with%20MiniTournamentGenerationEvaluationStrategy%0Aparticipant%20GenerationEvaluationActor%0Aparticipant%20ResultStorageActor%0Aparticipant%20MiniTournamentManager%0Aparticipant%20EvaluationActor%0A%0Arbox%20over%20GenerationEvaluationActor%3AReady%0Arbox%20over%20EvaluationActor%3AReady%0A%0A%5B-%23blue%3EGenerationEvaluationActor%3A%3Ccolor%3A%23blue%3EGenerationEvaluation%0Aactivate%20GenerationEvaluationActor%0Arbox%20over%20GenerationEvaluationActor%3AFetchingResultsFromStorage%0A%0Aloop%20FORALL%20g%20in%20Genomes%0AGenerationEvaluationActor-%23blue%3EResultStorageActor%3A%3Ccolor%3A%23blue%3EGenomeResultsRequest(g)%0Aactivate%20ResultStorageActor%0AResultStorageActor--%23blue%3EGenerationEvaluationActor%3A%3Ccolor%3A%23blue%3EGenomeResults(g)%0Adeactivate%20ResultStorageActor%0AGenerationEvaluationActor-%3EMiniTournamentManager%3AUpdate%20GenomeStats(g%2CResults)%0A%0Aactivate%20MiniTournamentManager%0Anote%20right%20of%20MiniTournamentManager%3Acf.%20UML%20003%0AMiniTournamentManager-%3EMiniTournamentManager%3AUpdate%20GenomePriorityQueue%5Cn%5B%2B%20check%20for%20racing%20condition%5D%0AMiniTournamentManager--%3EGenerationEvaluationActor%3A%0Adeactivate%20MiniTournamentManager%0Aend%0Arbox%20over%20GenerationEvaluationActor%3AWorking%0A%0AGenerationEvaluationActor-%23blue%3EEvaluationActor%3A%3Ccolor%3A%23blue%3EPoll%0Adeactivate%20GenerationEvaluationActor%0Aactivate%20EvaluationActor%0AEvaluationActor--%23blue%3E(2)GenerationEvaluationActor%3A%3Ccolor%3A%23blue%3EAccept%0Aactivate%20GenerationEvaluationActor%0Adeactivate%20EvaluationActor%0A%0Aloop%20WHILE%20NOT%20IsGenerationFinished%0AGenerationEvaluationActor-%3EMiniTournamentManager%3AGet%20next%20evaluation%0Aactivate%20MiniTournamentManager%0AMiniTournamentManager-%3EMiniTournamentManager%3APop%20next%20GIP%5Cn%5BGenomeInstancePair%5D%0AMiniTournamentManager-%3EMiniTournamentManager%3AUpdate%20GenomePriorityQueue%0AMiniTournamentManager--%3EGenerationEvaluationActor%3AGIP%0Adeactivate%20MiniTournamentManager%0AGenerationEvaluationActor-%23blue%3EEvaluationActor%3A%3Ccolor%3A%23blue%3EGenomeInstancePairEvaluation(GIP)%0Aactivate%20EvaluationActor%0Arbox%20over%20EvaluationActor%3AEvaluating%0A%0AEvaluationActor-%3E(2)EvaluationActor%3AEvaluate%20GIP%0A%0Arbox%20over%20EvaluationActor%3AReady%0A%0AEvaluationActor--%23blue%3E(2)GenerationEvaluationActor%3A%3Ccolor%3A%23blue%3EEvaluationResult(GIP)%0Adeactivate%20EvaluationActor%0A%0AGenerationEvaluationActor-%3EMiniTournamentManager%3AUpdate%20GenomeStats(GIP%2CResult)%0Aactivate%20MiniTournamentManager%0Anote%20right%20of%20MiniTournamentManager%3Acf.%20UML%20003%0AMiniTournamentManager-%3EMiniTournamentManager%3AUpdate%20GenomePriorityQueue%5Cn%5B%2B%20check%20for%20racing%20condition%5D%0AMiniTournamentManager--%3EGenerationEvaluationActor%3A%0Adeactivate%20MiniTournamentManager%0Aend%0A%0AGenerationEvaluationActor--%23blue%3E%5B%3A%3Ccolor%3A%23blue%3EGgaResult%0Adeactivate%20GenerationEvaluationActor%0Arbox%20over%20GenerationEvaluationActor%3AReady%0A</desc><defs/><g><g/><g/><g/><g/><g/><g/><g/><g/><g/><g/><g/><g/><g/><g/><g/><g/><g/><g/><g/><g/><g/><g/><g/><g/><g/><g/><g/><g/><g/><g/><g/><g><rect fill="white" stroke="none" x="0" y="0" width="1027" height="1951"/></g><g><text fill="black" stroke="none" font-family="sans-serif" font-size="16.5pt" font-style="normal" font-weight="normal" text-decoration="normal" x="211.52986466135928" y="24.50280495" text-anchor="start" dominant-baseline="alphabetic" xml:space="preserve">Evaluation with MiniTournamentGenerationEvaluationStrategy</text></g><g/><g><path fill="none" stroke="black" paint-order="fill stroke markers" d=" M 197.8957454333333 95.887643371 L 197.8957454333333 1951.2194669643875" stroke-miterlimit="10" stroke-width="1.3612669416666667" stroke-dasharray="12.565541,5.445067766666667"/><path fill="none" stroke="black" paint-order="fill stroke markers" d=" M 436.7914908666666 95.887643371 L 436.7914908666666 1951.2194669643875" stroke-miterlimit="10" stroke-width="1.3612669416666667" stroke-dasharray="12.565541,5.445067766666667"/><path fill="none" stroke="black" paint-order="fill stroke markers" d=" M 631.0740853276666 95.887643371 L 631.0740853276666 1951.2194669643875" stroke-miterlimit="10" stroke-width="1.3612669416666667" stroke-dasharray="12.565541,5.445067766666667"/><path fill="none" stroke="black" paint-order="fill stroke markers" d=" M 888.6923646443332 95.887643371 L 888.6923646443332 1951.2194669643875" stroke-miterlimit="10" stroke-width="1.3612669416666667" stroke-dasharray="12.565541,5.445067766666667"/></g><g><path fill="none" stroke="none"/><g><path fill="white" stroke="black" paint-order="fill stroke markers" d=" M 94.1720498528333 51.782594461 L 301.6194410138333 51.782594461 L 301.6194410138333 95.887643371 L 94.1720498528333 95.887643371 L 94.1720498528333 51.782594461 Z" stroke-miterlimit="10" stroke-width="2.613632528" stroke-dasharray=""/></g><g><g/><text fill="black" stroke="none" font-family="sans-serif" font-size="11pt" font-style="normal" font-weight="normal" text-decoration="normal" x="111.8957454333333" y="79.55244007099999" text-anchor="start" dominant-baseline="alphabetic" xml:space="preserve">GenerationEvaluationActor</text></g><path fill="none" stroke="none"/><g><path fill="white" stroke="black" paint-order="fill stroke markers" d=" M 355.5677952861666 51.782594461 L 518.0151864471666 51.782594461 L 518.0151864471666 95.887643371 L 355.5677952861666 95.887643371 L 355.5677952861666 51.782594461 Z" stroke-miterlimit="10" stroke-width="2.613632528" stroke-dasharray=""/></g><g><g/><text fill="black" stroke="none" font-family="sans-serif" font-size="11pt" font-style="normal" font-weight="normal" text-decoration="normal" x="373.2914908666666" y="79.55244007099999" text-anchor="start" dominant-baseline="alphabetic" xml:space="preserve">ResultStorageActor</text></g><path fill="none" stroke="none"/><g><path fill="white" stroke="black" paint-order="fill stroke markers" d=" M 534.3503897471666 51.782594461 L 727.7977809081666 51.782594461 L 727.7977809081666 95.887643371 L 534.3503897471666 95.887643371 L 534.3503897471666 51.782594461 Z" stroke-miterlimit="10" stroke-width="2.613632528" stroke-dasharray=""/></g><g><g/><text fill="black" stroke="none" font-family="sans-serif" font-size="11pt" font-style="normal" font-weight="normal" text-decoration="normal" x="552.0740853276666" y="79.55244007099999" text-anchor="start" dominant-baseline="alphabetic" xml:space="preserve">MiniTournamentManager</text></g><path fill="none" stroke="none"/><g><path fill="white" stroke="black" paint-order="fill stroke markers" d=" M 820.4686690638332 51.782594461 L 956.9160602248332 51.782594461 L 956.9160602248332 95.887643371 L 820.4686690638332 95.887643371 L 820.4686690638332 51.782594461 Z" stroke-miterlimit="10" stroke-width="2.613632528" stroke-dasharray=""/></g><g><g/><text fill="black" stroke="none" font-family="sans-serif" font-size="11pt" font-style="normal" font-weight="normal" text-decoration="normal" x="838.1923646443332" y="79.55244007099999" text-anchor="start" dominant-baseline="alphabetic" xml:space="preserve">EvaluationActor</text></g></g><g><path fill="white" stroke="black" paint-order="fill stroke markers" d=" M 189.7281437833333 273.94135934099995 L 206.0633470833333 273.94135934099995 L 206.0633470833333 840.7729138509998 L 189.7281437833333 840.7729138509998 L 189.7281437833333 273.94135934099995" stroke-miterlimit="10" stroke-width="1.3612669416666667" stroke-dasharray=""/><path fill="white" stroke="black" paint-order="fill stroke markers" d=" M 428.6238892166666 425.85875003099994 L 444.9590925166666 425.85875003099994 L 444.9590925166666 471.59731927099995 L 428.6238892166666 471.59731927099995 L 428.6238892166666 425.85875003099994" stroke-miterlimit="10" stroke-width="1.3612669416666667" stroke-dasharray=""/><path fill="white" stroke="black" paint-order="fill stroke markers" d=" M 622.9064836776665 517.3358885109999 L 639.2416869776666 517.3358885109999 L 639.2416869776666 708.4577671209997 L 622.9064836776665 708.4577671209997 L 622.9064836776665 517.3358885109999" stroke-miterlimit="10" stroke-width="1.3612669416666667" stroke-dasharray=""/><path fill="white" stroke="black" paint-order="fill stroke markers" d=" M 880.5247629943332 840.7729138509998 L 896.8599662943333 840.7729138509998 L 896.8599662943333 871.2661629646831 L 880.5247629943332 871.2661629646831 L 880.5247629943332 840.7729138509998" stroke-miterlimit="10" stroke-width="1.3612669416666667" stroke-dasharray=""/><path fill="white" stroke="black" paint-order="fill stroke markers" d=" M 189.7281437833333 903.936569564683 L 206.0633470833333 903.936569564683 L 206.0633470833333 1831.9724828743877 L 189.7281437833333 1831.9724828743877 L 189.7281437833333 903.936569564683" stroke-miterlimit="10" stroke-width="1.3612669416666667" stroke-dasharray=""/><path fill="white" stroke="black" paint-order="fill stroke markers" d=" M 622.9064836776665 993.7801877146829 L 639.2416869776666 993.7801877146829 L 639.2416869776666 1189.802627314683 L 622.9064836776665 1189.802627314683 L 622.9064836776665 993.7801877146829" stroke-miterlimit="10" stroke-width="1.3612669416666667" stroke-dasharray=""/><path fill="white" stroke="black" paint-order="fill stroke markers" d=" M 880.5247629943332 1235.541196554683 L 896.8599662943333 1235.541196554683 L 896.8599662943333 1492.2002542343876 L 880.5247629943332 1492.2002542343876 L 880.5247629943332 1235.541196554683" stroke-miterlimit="10" stroke-width="1.3612669416666667" stroke-dasharray=""/><path fill="white" stroke="black" paint-order="fill stroke markers" d=" M 622.9064836776665 1570.6092300743876 L 639.2416869776666 1570.6092300743876 L 639.2416869776666 1761.7311086843877 L 622.9064836776665 1761.7311086843877 L 622.9064836776665 1570.6092300743876" stroke-miterlimit="10" stroke-width="1.3612669416666667" stroke-dasharray=""/><path fill="white" stroke="black" paint-order="fill stroke markers" d=" M 154.0264608133333 143.259732941 L 154.0264608133333 143.259732941 A 14.70168297 14.70168297 0 0 1 168.7281437833333 128.558049971 L 227.0633470833333 128.558049971 L 227.0633470833333 128.558049971 A 14.70168297 14.70168297 0 0 1 241.7650300533333 143.259732941 L 241.7650300533333 151.42733459099998 L 241.7650300533333 151.42733459099998 A 14.70168297 14.70168297 0 0 1 227.0633470833333 166.12901756099998 L 168.7281437833333 166.12901756099998 L 168.7281437833333 166.12901756099998 A 14.70168297 14.70168297 0 0 1 154.0264608133333 151.42733459099998 L 154.0264608133333 143.259732941" stroke-miterlimit="10" stroke-width="1.3612669416666667" stroke-dasharray=""/><g><text fill="black" stroke="none" font-family="sans-serif" font-size="11pt" font-style="normal" font-weight="normal" text-decoration="normal" x="176.8957454333333" y="151.42733459099995" text-anchor="start" dominant-baseline="alphabetic" xml:space="preserve">Ready</text></g><path fill="white" stroke="black" paint-order="fill stroke markers" d=" M 844.8230800243333 205.333505481 L 844.8230800243333 205.333505481 A 14.70168297 14.70168297 0 0 1 859.5247629943333 190.631822511 L 917.8599662943333 190.631822511 L 917.8599662943333 190.631822511 A 14.70168297 14.70168297 0 0 1 932.5616492643333 205.333505481 L 932.5616492643333 213.50110713099997 L 932.5616492643333 213.50110713099997 A 14.70168297 14.70168297 0 0 1 917.8599662943333 228.20279010099998 L 859.5247629943333 228.20279010099998 L 859.5247629943333 228.20279010099998 A 14.70168297 14.70168297 0 0 1 844.8230800243333 213.50110713099997 L 844.8230800243333 205.333505481" stroke-miterlimit="10" stroke-width="1.3612669416666667" stroke-dasharray=""/><g><text fill="black" stroke="none" font-family="sans-serif" font-size="11pt" font-style="normal" font-weight="normal" text-decoration="normal" x="867.6923646443332" y="213.50110713099994" text-anchor="start" dominant-baseline="alphabetic" xml:space="preserve">Ready</text></g><g><g><rect fill="white" stroke="none" x="27.49759222166665" y="252.70559505099996" width="142.90056099" height="21.23576429"/></g><text fill="blue" stroke="none" font-family="sans-serif" font-size="11pt" font-style="normal" font-weight="normal" text-decoration="normal" x="29.94787271666665" y="267.40727802099997" text-anchor="start" dominant-baseline="alphabetic" xml:space="preserve">GenerationEvaluation</text></g><g><path fill="none" stroke="blue" paint-order="fill stroke markers" d=" M 8.16760165 273.94135934099995 L 176.27882639966663 273.94135934099995" stroke-miterlimit="10" stroke-width="1.3612669416666667" stroke-dasharray=""/><g transform="translate(189.7281437833333,273.94135934099995) translate(-189.7281437833333,-273.94135934099995)"><path fill="blue" stroke="none" paint-order="stroke fill markers" d=" M 176.11547436666663 267.1350246326666 L 189.7281437833333 273.94135934099995 L 176.11547436666663 280.7476940493333 Z"/></g></g><path fill="white" stroke="black" paint-order="fill stroke markers" d=" M 79.0264608133333 313.1458472609999 L 79.0264608133333 313.1458472609999 A 14.70168297 14.70168297 0 0 1 93.72814378333331 298.44416429099994 L 302.0633470833333 298.44416429099994 L 302.0633470833333 298.44416429099994 A 14.70168297 14.70168297 0 0 1 316.7650300533333 313.1458472609999 L 316.7650300533333 321.31344891099997 L 316.7650300533333 321.31344891099997 A 14.70168297 14.70168297 0 0 1 302.0633470833333 336.01513188099995 L 93.72814378333331 336.01513188099995 L 93.72814378333331 336.01513188099995 A 14.70168297 14.70168297 0 0 1 79.0264608133333 321.31344891099997 L 79.0264608133333 313.1458472609999" stroke-miterlimit="10" stroke-width="1.3612669416666667" stroke-dasharray=""/><g><text fill="black" stroke="none" font-family="sans-serif" font-size="11pt" font-style="normal" font-weight="normal" text-decoration="normal" x="101.8957454333333" y="321.3134489109999" text-anchor="start" dominant-baseline="alphabetic" xml:space="preserve">FetchingResultsFromStorage</text></g><g><g><rect fill="white" stroke="none" x="225.39333765499995" y="404.6229857409999" width="183.90056099" height="21.23576429"/></g><text fill="blue" stroke="none" font-family="sans-serif" font-size="11pt" font-style="normal" font-weight="normal" text-decoration="normal" x="227.84361814999994" y="419.3246687109999" text-anchor="start" dominant-baseline="alphabetic" xml:space="preserve">GenomeResultsRequest(g)</text></g><g><path fill="none" stroke="blue" paint-order="fill stroke markers" d=" M 206.0633470833333 425.85875003099994 L 415.17457183299996 425.85875003099994" stroke-miterlimit="10" stroke-width="1.3612669416666667" stroke-dasharray=""/><g transform="translate(428.6238892166666,425.85875003099994) translate(-428.6238892166666,-425.85875003099994)"><path fill="blue" stroke="none" paint-order="stroke fill markers" d=" M 415.01121979999994 419.0524153226666 L 428.6238892166666 425.85875003099994 L 415.01121979999994 432.6650847393333 Z"/></g></g><g><g><rect fill="white" stroke="none" x="252.89333765499995" y="450.3615549809999" width="128.90056099" height="21.23576429"/></g><text fill="blue" stroke="none" font-family="sans-serif" font-size="11pt" font-style="normal" font-weight="normal" text-decoration="normal" x="255.34361814999994" y="465.0632379509999" text-anchor="start" dominant-baseline="alphabetic" xml:space="preserve">GenomeResults(g)</text></g><g><path fill="none" stroke="blue" paint-order="fill stroke markers" d=" M 428.6238892166666 471.59731927099995 L 219.51266446699998 471.59731927099995" stroke-miterlimit="10" stroke-width="1.3612669416666667" stroke-dasharray="6.53408132"/><g transform="translate(206.0633470833333,471.59731927099995) translate(-206.0633470833333,-471.59731927099995)"><path fill="blue" stroke="none" paint-order="stroke fill markers" d=" M 219.67601649999997 464.7909845626666 L 206.0633470833333 471.59731927099995 L 219.67601649999997 478.4036539793333 Z"/></g></g><g><g><rect fill="white" stroke="none" x="306.03463488549994" y="496.1001242209999" width="216.90056099" height="21.23576429"/></g><text fill="black" stroke="none" font-family="sans-serif" font-size="11pt" font-style="normal" font-weight="normal" text-decoration="normal" x="308.48491538049996" y="510.80180719099985" text-anchor="start" dominant-baseline="alphabetic" xml:space="preserve">Update GenomeStats(g,Results)</text></g><g><path fill="none" stroke="black" paint-order="fill stroke markers" d=" M 206.0633470833333 517.3358885109999 L 609.4571662939999 517.3358885109999" stroke-miterlimit="10" stroke-width="1.3612669416666667" stroke-dasharray=""/><g transform="translate(622.9064836776665,517.3358885109999) translate(-622.9064836776665,-517.3358885109999)"><path fill="black" stroke="none" paint-order="stroke fill markers" d=" M 609.2938142609999 510.52955380266656 L 622.9064836776665 517.3358885109999 L 609.2938142609999 524.1422232193332 Z"/></g></g><path fill="white" stroke="black" paint-order="fill stroke markers" d=" M 639.2416869776666 560.6241772559998 L 647.4092886276667 560.6241772559998 M 647.4092886276667 541.8386934609998 L 755.4461748976667 541.8386934609998 L 770.1478578676666 556.5403764309998 L 770.1478578676666 579.4096610509998 L 647.4092886276667 579.4096610509998 L 647.4092886276667 541.8386934609998 M 755.4461748976667 541.8386934609998 L 755.4461748976667 556.5403764309998 L 770.1478578676666 556.5403764309998" stroke-miterlimit="10" stroke-width="1.3612669416666667" stroke-dasharray=""/><g><text fill="black" stroke="none" font-family="sans-serif" font-size="11pt" font-style="normal" font-weight="normal" text-decoration="normal" x="670.2785732476666" y="564.7079780809999" text-anchor="start" dominant-baseline="alphabetic" xml:space="preserve">cf. UML 003</text></g><g><g><rect fill="white" stroke="none" x="658.5716775493333" y="603.9124660009998" width="199.90056099" height="21.23576429"/></g><g><rect fill="white" stroke="none" x="658.5716775493333" y="620.2476693009997" width="191.90056099" height="21.23576429"/></g><text fill="black" stroke="none" font-family="sans-serif" font-size="11pt" font-style="normal" font-weight="normal" text-decoration="normal" x="661.0219580443334" y="618.6141489709997" text-anchor="start" dominant-baseline="alphabetic" xml:space="preserve">Update GenomePriorityQueue</text><text fill="black" stroke="none" font-family="sans-serif" font-size="11pt" font-style="normal" font-weight="normal" text-decoration="normal" x="661.0219580443334" y="634.9493522709997" text-anchor="start" dominant-baseline="alphabetic" xml:space="preserve">[+ check for racing condition]</text></g><g><path fill="none" stroke="black" paint-order="fill stroke markers" d=" M 639.2416869776666 641.4834335909998 L 704.5825001776666 641.4834335909998 L 704.5825001776666 662.7191978809998 L 652.6910043613333 662.7191978809998" stroke-miterlimit="10" stroke-width="1.3612669416666667" stroke-dasharray=""/><g transform="translate(639.2416869776666,662.7191978809998) translate(-639.2416869776666,-662.7191978809998)"><path fill="black" stroke="none" paint-order="stroke fill markers" d=" M 652.8543563943333 655.9128631726664 L 639.2416869776666 662.7191978809998 L 652.8543563943333 669.5255325893331 Z"/></g></g><g><g><rect fill="white" stroke="none" x="412.03463488549994" y="687.2220028309997" width="4.90056099" height="21.23576429"/></g><text fill="black" stroke="none" font-family="sans-serif" font-size="11pt" font-style="normal" font-weight="normal" text-decoration="normal" x="414.48491538049996" y="701.9236858009997" text-anchor="start" dominant-baseline="alphabetic" xml:space="preserve"></text></g><g><path fill="none" stroke="black" paint-order="fill stroke markers" d=" M 622.9064836776665 708.4577671209997 L 219.51266446699998 708.4577671209997" stroke-miterlimit="10" stroke-width="1.3612669416666667" stroke-dasharray="6.53408132"/><g transform="translate(206.0633470833333,708.4577671209997) translate(-206.0633470833333,-708.4577671209997)"><path fill="black" stroke="none" paint-order="stroke fill markers" d=" M 219.67601649999997 701.6514324126664 L 206.0633470833333 708.4577671209997 L 219.67601649999997 715.2641018293331 Z"/></g></g><path fill="white" stroke="black" paint-order="fill stroke markers" d=" M 148.0264608133333 772.1650599909998 L 148.0264608133333 772.1650599909998 A 14.70168297 14.70168297 0 0 1 162.7281437833333 757.4633770209998 L 233.0633470833333 757.4633770209998 L 233.0633470833333 757.4633770209998 A 14.70168297 14.70168297 0 0 1 247.7650300533333 772.1650599909998 L 247.7650300533333 780.3326616409998 L 247.7650300533333 780.3326616409998 A 14.70168297 14.70168297 0 0 1 233.0633470833333 795.0343446109998 L 162.7281437833333 795.0343446109998 L 162.7281437833333 795.0343446109998 A 14.70168297 14.70168297 0 0 1 148.0264608133333 780.3326616409998 L 148.0264608133333 772.1650599909998" stroke-miterlimit="10" stroke-width="1.3612669416666667" stroke-dasharray=""/><g><text fill="black" stroke="none" font-family="sans-serif" font-size="11pt" font-style="normal" font-weight="normal" text-decoration="normal" x="170.8957454333333" y="780.3326616409998" text-anchor="start" dominant-baseline="alphabetic" xml:space="preserve">Working</text></g><g><g><rect fill="white" stroke="none" x="528.8437745438332" y="819.5371495609998" width="28.90056099" height="21.23576429"/></g><text fill="blue" stroke="none" font-family="sans-serif" font-size="11pt" font-style="normal" font-weight="normal" text-decoration="normal" x="531.2940550388332" y="834.2388325309997" text-anchor="start" dominant-baseline="alphabetic" xml:space="preserve">Poll</text></g><g><path fill="none" stroke="blue" paint-order="fill stroke markers" d=" M 206.0633470833333 840.7729138509998 L 867.0754456106665 840.7729138509998" stroke-miterlimit="10" stroke-width="1.3612669416666667" stroke-dasharray=""/><g transform="translate(880.5247629943332,840.7729138509998) translate(-880.5247629943332,-840.7729138509998)"><path fill="blue" stroke="none" paint-order="stroke fill markers" d=" M 866.9120935776665 833.9665791426664 L 880.5247629943332 840.7729138509998 L 866.9120935776665 847.5792485593331 Z"/></g></g><g><g><rect fill="white" stroke="none" x="518.3437745438332" y="865.2757188009998" width="49.90056099" height="21.23576429"/></g><text fill="blue" stroke="none" font-family="sans-serif" font-size="11pt" font-style="normal" font-weight="normal" text-decoration="normal" x="520.7940550388332" y="879.9774017709998" text-anchor="start" dominant-baseline="alphabetic" xml:space="preserve">Accept</text></g><g><path fill="none" stroke="blue" paint-order="fill stroke markers" d=" M 880.5247629943332 871.2661629646831 L 219.49691370142227 903.2858576438116" stroke-miterlimit="10" stroke-width="1.3612669416666667" stroke-dasharray="6.53408132"/><g transform="translate(206.0633470833333,903.936569564683) rotate(-2.7731970932298253,0,0) translate(-206.0633470833333,-903.936569564683)"><path fill="blue" stroke="none" paint-order="stroke fill markers" d=" M 219.67601649999997 897.1302348563497 L 206.0633470833333 903.936569564683 L 219.67601649999997 910.7429042730164 Z"/><g transform="rotate(2.7731970932298253,0,0)"/></g></g><g><g><rect fill="white" stroke="none" x="350.53463488549994" y="972.5444234246829" width="127.90056099" height="21.23576429"/></g><text fill="black" stroke="none" font-family="sans-serif" font-size="11pt" font-style="normal" font-weight="normal" text-decoration="normal" x="352.98491538049996" y="987.2461063946829" text-anchor="start" dominant-baseline="alphabetic" xml:space="preserve">Get next evaluation</text></g><g><path fill="none" stroke="black" paint-order="fill stroke markers" d=" M 206.0633470833333 993.7801877146829 L 609.4571662939999 993.7801877146829" stroke-miterlimit="10" stroke-width="1.3612669416666667" stroke-dasharray=""/><g transform="translate(622.9064836776665,993.7801877146829) translate(-622.9064836776665,-993.7801877146829)"><path fill="black" stroke="none" paint-order="stroke fill markers" d=" M 609.2938142609999 986.9738530063496 L 622.9064836776665 993.7801877146829 L 609.2938142609999 1000.5865224230163 Z"/></g></g><g><g><rect fill="white" stroke="none" x="658.5716775493333" y="1018.2829926646829" width="89.90056099" height="21.23576429"/></g><g><rect fill="white" stroke="none" x="658.5716775493333" y="1034.6181959646829" width="149.90056099" height="21.23576429"/></g><text fill="black" stroke="none" font-family="sans-serif" font-size="11pt" font-style="normal" font-weight="normal" text-decoration="normal" x="661.0219580443334" y="1032.9846756346828" text-anchor="start" dominant-baseline="alphabetic" xml:space="preserve">Pop next GIP</text><text fill="black" stroke="none" font-family="sans-serif" font-size="11pt" font-style="normal" font-weight="normal" text-decoration="normal" x="661.0219580443334" y="1049.319878934683" text-anchor="start" dominant-baseline="alphabetic" xml:space="preserve">[GenomeInstancePair]</text></g><g><path fill="none" stroke="black" paint-order="fill stroke markers" d=" M 639.2416869776666 1055.853960254683 L 704.5825001776666 1055.853960254683 L 704.5825001776666 1077.089724544683 L 652.6910043613333 1077.089724544683" stroke-miterlimit="10" stroke-width="1.3612669416666667" stroke-dasharray=""/><g transform="translate(639.2416869776666,1077.089724544683) translate(-639.2416869776666,-1077.089724544683)"><path fill="black" stroke="none" paint-order="stroke fill markers" d=" M 652.8543563943333 1070.2833898363497 L 639.2416869776666 1077.089724544683 L 652.8543563943333 1083.8960592530161 Z"/></g></g><g><g><rect fill="white" stroke="none" x="658.5716775493333" y="1101.5925294946828" width="199.90056099" height="21.23576429"/></g><text fill="black" stroke="none" font-family="sans-serif" font-size="11pt" font-style="normal" font-weight="normal" text-decoration="normal" x="661.0219580443334" y="1116.294212464683" text-anchor="start" dominant-baseline="alphabetic" xml:space="preserve">Update GenomePriorityQueue</text></g><g><path fill="none" stroke="black" paint-order="fill stroke markers" d=" M 639.2416869776666 1122.828293784683 L 704.5825001776666 1122.828293784683 L 704.5825001776666 1144.0640580746829 L 652.6910043613333 1144.0640580746829" stroke-miterlimit="10" stroke-width="1.3612669416666667" stroke-dasharray=""/><g transform="translate(639.2416869776666,1144.0640580746829) translate(-639.2416869776666,-1144.0640580746829)"><path fill="black" stroke="none" paint-order="stroke fill markers" d=" M 652.8543563943333 1137.2577233663496 L 639.2416869776666 1144.0640580746829 L 652.8543563943333 1150.870392783016 Z"/></g></g><g><g><rect fill="white" stroke="none" x="400.03463488549994" y="1168.566863024683" width="28.90056099" height="21.23576429"/></g><text fill="black" stroke="none" font-family="sans-serif" font-size="11pt" font-style="normal" font-weight="normal" text-decoration="normal" x="402.48491538049996" y="1183.268545994683" text-anchor="start" dominant-baseline="alphabetic" xml:space="preserve">GIP</text></g><g><path fill="none" stroke="black" paint-order="fill stroke markers" d=" M 622.9064836776665 1189.802627314683 L 219.51266446699998 1189.802627314683" stroke-miterlimit="10" stroke-width="1.3612669416666667" stroke-dasharray="6.53408132"/><g transform="translate(206.0633470833333,1189.802627314683) translate(-206.0633470833333,-1189.802627314683)"><path fill="black" stroke="none" paint-order="stroke fill markers" d=" M 219.67601649999997 1182.9962926063497 L 206.0633470833333 1189.802627314683 L 219.67601649999997 1196.6089620230161 Z"/></g></g><g><g><rect fill="white" stroke="none" x="421.8437745438332" y="1214.305432264683" width="242.90056099" height="21.23576429"/></g><text fill="blue" stroke="none" font-family="sans-serif" font-size="11pt" font-style="normal" font-weight="normal" text-decoration="normal" x="424.2940550388332" y="1229.0071152346832" text-anchor="start" dominant-baseline="alphabetic" xml:space="preserve">GenomeInstancePairEvaluation(GIP)</text></g><g><path fill="none" stroke="blue" paint-order="fill stroke markers" d=" M 206.0633470833333 1235.541196554683 L 867.0754456106665 1235.541196554683" stroke-miterlimit="10" stroke-width="1.3612669416666667" stroke-dasharray=""/><g transform="translate(880.5247629943332,1235.541196554683) translate(-880.5247629943332,-1235.541196554683)"><path fill="blue" stroke="none" paint-order="stroke fill markers" d=" M 866.9120935776665 1228.7348618463498 L 880.5247629943332 1235.541196554683 L 866.9120935776665 1242.3475312630162 Z"/></g></g><path fill="white" stroke="black" paint-order="fill stroke markers" d=" M 832.3230800243333 1274.745684474683 L 832.3230800243333 1274.745684474683 A 14.70168297 14.70168297 0 0 1 847.0247629943333 1260.044001504683 L 930.3599662943333 1260.044001504683 L 930.3599662943333 1260.044001504683 A 14.70168297 14.70168297 0 0 1 945.0616492643333 1274.745684474683 L 945.0616492643333 1282.9132861246828 L 945.0616492643333 1282.9132861246828 A 14.70168297 14.70168297 0 0 1 930.3599662943333 1297.614969094683 L 847.0247629943333 1297.614969094683 L 847.0247629943333 1297.614969094683 A 14.70168297 14.70168297 0 0 1 832.3230800243333 1282.9132861246828 L 832.3230800243333 1274.745684474683" stroke-miterlimit="10" stroke-width="1.3612669416666667" stroke-dasharray=""/><g><text fill="black" stroke="none" font-family="sans-serif" font-size="11pt" font-style="normal" font-weight="normal" text-decoration="normal" x="855.1923646443332" y="1282.913286124683" text-anchor="start" dominant-baseline="alphabetic" xml:space="preserve">Evaluating</text></g><g><g><rect fill="white" stroke="none" x="916.189956866" y="1322.1177740446828" width="88.90056099" height="21.23576429"/></g><text fill="black" stroke="none" font-family="sans-serif" font-size="11pt" font-style="normal" font-weight="normal" text-decoration="normal" x="918.640237361" y="1336.819457014683" text-anchor="start" dominant-baseline="alphabetic" xml:space="preserve">Evaluate GIP</text></g><g><path fill="none" stroke="black" paint-order="fill stroke markers" d=" M 896.8599662943333 1343.353538334683 L 962.2007794943332 1343.353538334683 L 962.2007794943332 1364.589302624683 L 908.8894014626726 1391.2449916405133" stroke-miterlimit="10" stroke-width="1.3612669416666667" stroke-dasharray=""/><g transform="translate(896.8599662943333,1397.2597092246829) rotate(-26.56505117707799,0,0) translate(-896.8599662943333,-1397.2597092246829)"><path fill="black" stroke="none" paint-order="stroke fill markers" d=" M 910.472635711 1390.4533745163496 L 896.8599662943333 1397.2597092246829 L 910.472635711 1404.066043933016 Z"/><g transform="rotate(26.56505117707799,0,0)"/></g></g><path fill="white" stroke="black" paint-order="fill stroke markers" d=" M 844.8230800243333 1436.4641971446829 L 844.8230800243333 1436.4641971446829 A 14.70168297 14.70168297 0 0 1 859.5247629943333 1421.7625141746828 L 917.8599662943333 1421.7625141746828 L 917.8599662943333 1421.7625141746828 A 14.70168297 14.70168297 0 0 1 932.5616492643333 1436.4641971446829 L 932.5616492643333 1444.6317987946827 L 932.5616492643333 1444.6317987946827 A 14.70168297 14.70168297 0 0 1 917.8599662943333 1459.3334817646828 L 859.5247629943333 1459.3334817646828 L 859.5247629943333 1459.3334817646828 A 14.70168297 14.70168297 0 0 1 844.8230800243333 1444.6317987946827 L 844.8230800243333 1436.4641971446829" stroke-miterlimit="10" stroke-width="1.3612669416666667" stroke-dasharray=""/><g><text fill="black" stroke="none" font-family="sans-serif" font-size="11pt" font-style="normal" font-weight="normal" text-decoration="normal" x="867.6923646443332" y="1444.631798794683" text-anchor="start" dominant-baseline="alphabetic" xml:space="preserve">Ready</text></g><g><g><rect fill="white" stroke="none" x="469.3437745438332" y="1483.836286714683" width="147.90056099" height="21.23576429"/></g><text fill="blue" stroke="none" font-family="sans-serif" font-size="11pt" font-style="normal" font-weight="normal" text-decoration="normal" x="471.7940550388332" y="1498.537969684683" text-anchor="start" dominant-baseline="alphabetic" xml:space="preserve">EvaluationResult(GIP)</text></g><g><path fill="none" stroke="blue" paint-order="fill stroke markers" d=" M 880.5247629943332 1492.2002542343876 L 219.49691370142227 1524.219948913516" stroke-miterlimit="10" stroke-width="1.3612669416666667" stroke-dasharray="6.53408132"/><g transform="translate(206.0633470833333,1524.8706608343875) rotate(-2.7731970932298253,0,0) translate(-206.0633470833333,-1524.8706608343875)"><path fill="blue" stroke="none" paint-order="stroke fill markers" d=" M 219.67601649999997 1518.0643261260543 L 206.0633470833333 1524.8706608343875 L 219.67601649999997 1531.6769955427208 Z"/><g transform="rotate(2.7731970932298253,0,0)"/></g></g><g><g><rect fill="white" stroke="none" x="303.03463488549994" y="1549.3734657843877" width="222.90056099" height="21.23576429"/></g><text fill="black" stroke="none" font-family="sans-serif" font-size="11pt" font-style="normal" font-weight="normal" text-decoration="normal" x="305.48491538049996" y="1564.0751487543878" text-anchor="start" dominant-baseline="alphabetic" xml:space="preserve">Update GenomeStats(GIP,Result)</text></g><g><path fill="none" stroke="black" paint-order="fill stroke markers" d=" M 206.0633470833333 1570.6092300743876 L 609.4571662939999 1570.6092300743876" stroke-miterlimit="10" stroke-width="1.3612669416666667" stroke-dasharray=""/><g transform="translate(622.9064836776665,1570.6092300743876) translate(-622.9064836776665,-1570.6092300743876)"><path fill="black" stroke="none" paint-order="stroke fill markers" d=" M 609.2938142609999 1563.8028953660544 L 622.9064836776665 1570.6092300743876 L 609.2938142609999 1577.4155647827208 Z"/></g></g><path fill="white" stroke="black" paint-order="fill stroke markers" d=" M 639.2416869776666 1613.8975188193876 L 647.4092886276667 1613.8975188193876 M 647.4092886276667 1595.1120350243875 L 755.4461748976667 1595.1120350243875 L 770.1478578676666 1609.8137179943876 L 770.1478578676666 1632.6830026143875 L 647.4092886276667 1632.6830026143875 L 647.4092886276667 1595.1120350243875 M 755.4461748976667 1595.1120350243875 L 755.4461748976667 1609.8137179943876 L 770.1478578676666 1609.8137179943876" stroke-miterlimit="10" stroke-width="1.3612669416666667" stroke-dasharray=""/><g><text fill="black" stroke="none" font-family="sans-serif" font-size="11pt" font-style="normal" font-weight="normal" text-decoration="normal" x="670.2785732476666" y="1617.9813196443877" text-anchor="start" dominant-baseline="alphabetic" xml:space="preserve">cf. UML 003</text></g><g><g><rect fill="white" stroke="none" x="658.5716775493333" y="1657.1858075643877" width="199.90056099" height="21.23576429"/></g><g><rect fill="white" stroke="none" x="658.5716775493333" y="1673.5210108643878" width="191.90056099" height="21.23576429"/></g><text fill="black" stroke="none" font-family="sans-serif" font-size="11pt" font-style="normal" font-weight="normal" text-decoration="normal" x="661.0219580443334" y="1671.8874905343878" text-anchor="start" dominant-baseline="alphabetic" xml:space="preserve">Update GenomePriorityQueue</text><text fill="black" stroke="none" font-family="sans-serif" font-size="11pt" font-style="normal" font-weight="normal" text-decoration="normal" x="661.0219580443334" y="1688.2226938343879" text-anchor="start" dominant-baseline="alphabetic" xml:space="preserve">[+ check for racing condition]</text></g><g><path fill="none" stroke="black" paint-order="fill stroke markers" d=" M 639.2416869776666 1694.7567751543877 L 704.5825001776666 1694.7567751543877 L 704.5825001776666 1715.9925394443876 L 652.6910043613333 1715.9925394443876" stroke-miterlimit="10" stroke-width="1.3612669416666667" stroke-dasharray=""/><g transform="translate(639.2416869776666,1715.9925394443876) translate(-639.2416869776666,-1715.9925394443876)"><path fill="black" stroke="none" paint-order="stroke fill markers" d=" M 652.8543563943333 1709.1862047360544 L 639.2416869776666 1715.9925394443876 L 652.8543563943333 1722.7988741527208 Z"/></g></g><g><g><rect fill="white" stroke="none" x="412.03463488549994" y="1740.4953443943878" width="4.90056099" height="21.23576429"/></g><text fill="black" stroke="none" font-family="sans-serif" font-size="11pt" font-style="normal" font-weight="normal" text-decoration="normal" x="414.48491538049996" y="1755.1970273643878" text-anchor="start" dominant-baseline="alphabetic" xml:space="preserve"></text></g><g><path fill="none" stroke="black" paint-order="fill stroke markers" d=" M 622.9064836776665 1761.7311086843877 L 219.51266446699998 1761.7311086843877" stroke-miterlimit="10" stroke-width="1.3612669416666667" stroke-dasharray="6.53408132"/><g transform="translate(206.0633470833333,1761.7311086843877) translate(-206.0633470833333,-1761.7311086843877)"><path fill="black" stroke="none" paint-order="stroke fill markers" d=" M 219.67601649999997 1754.9247739760544 L 206.0633470833333 1761.7311086843877 L 219.67601649999997 1768.537443392721 Z"/></g></g><g><g><rect fill="white" stroke="none" x="61.99759222166665" y="1810.7367185843877" width="73.90056099" height="21.23576429"/></g><text fill="blue" stroke="none" font-family="sans-serif" font-size="11pt" font-style="normal" font-weight="normal" text-decoration="normal" x="64.44787271666665" y="1825.4384015543878" text-anchor="start" dominant-baseline="alphabetic" xml:space="preserve">GgaResult</text></g><g><path fill="none" stroke="blue" paint-order="fill stroke markers" d=" M 189.7281437833333 1831.9724828743877 L 21.61691903366667 1831.9724828743877" stroke-miterlimit="10" stroke-width="1.3612669416666667" stroke-dasharray="6.53408132"/><g transform="translate(8.16760165,1831.9724828743877) translate(-8.16760165,-1831.9724828743877)"><path fill="blue" stroke="none" paint-order="stroke fill markers" d=" M 21.780271066666668 1825.1661481660544 L 8.16760165 1831.9724828743877 L 21.780271066666668 1838.7788175827209 Z"/></g></g><path fill="white" stroke="black" paint-order="fill stroke markers" d=" M 154.0264608133333 1871.1769707943877 L 154.0264608133333 1871.1769707943877 A 14.70168297 14.70168297 0 0 1 168.7281437833333 1856.4752878243876 L 227.0633470833333 1856.4752878243876 L 227.0633470833333 1856.4752878243876 A 14.70168297 14.70168297 0 0 1 241.7650300533333 1871.1769707943877 L 241.7650300533333 1879.3445724443875 L 241.7650300533333 1879.3445724443875 A 14.70168297 14.70168297 0 0 1 227.0633470833333 1894.0462554143876 L 168.7281437833333 1894.0462554143876 L 168.7281437833333 1894.0462554143876 A 14.70168297 14.70168297 0 0 1 154.0264608133333 1879.3445724443875 L 154.0264608133333 1871.1769707943877" stroke-miterlimit="10" stroke-width="1.3612669416666667" stroke-dasharray=""/><g><text fill="black" stroke="none" font-family="sans-serif" font-size="11pt" font-style="normal" font-weight="normal" text-decoration="normal" x="176.8957454333333" y="1879.3445724443877" text-anchor="start" dominant-baseline="alphabetic" xml:space="preserve">Ready</text></g><g><g/><path fill="none" stroke="black" paint-order="fill stroke markers" d=" M 132.55493223333332 360.51793683099993 L 864.1895596943334 360.51793683099993 L 864.1895596943334 732.9605720709998 L 132.55493223333332 732.9605720709998 L 132.55493223333332 360.51793683099993 Z" stroke-miterlimit="10" stroke-width="2.3336004714285714" stroke-dasharray=""/><path fill="white" stroke="black" paint-order="fill stroke markers" d=" M 132.55493223333332 360.51793683099993 L 132.55493223333332 380.12018079099994 L 189.22533883333332 380.12018079099994 L 199.02646081333333 370.31905881099993 L 199.02646081333333 360.51793683099993 L 132.55493223333332 360.51793683099993" stroke-miterlimit="10" stroke-width="2.3336004714285714" stroke-dasharray=""/><text fill="black" stroke="none" font-family="sans-serif" font-size="8.8pt" font-style="normal" font-weight="bold" text-decoration="normal" x="148.8901355333333" y="373.58609947099995" text-anchor="start" dominant-baseline="alphabetic" xml:space="preserve">loop</text><text fill="black" stroke="none" font-family="sans-serif" font-size="8.8pt" font-style="normal" font-weight="bold" text-decoration="normal" x="215.36166411333332" y="373.58609947099995" text-anchor="start" dominant-baseline="alphabetic" xml:space="preserve">[FORALL g in Genomes]</text></g><g><g/><path fill="none" stroke="black" paint-order="fill stroke markers" d=" M 132.55493223333332 928.439374514683 L 1010.8078390109999 928.439374514683 L 1010.8078390109999 1786.2339136343876 L 132.55493223333332 1786.2339136343876 L 132.55493223333332 928.439374514683 Z" stroke-miterlimit="10" stroke-width="2.3336004714285714" stroke-dasharray=""/><path fill="white" stroke="black" paint-order="fill stroke markers" d=" M 132.55493223333332 928.439374514683 L 132.55493223333332 948.041618474683 L 189.22533883333332 948.041618474683 L 199.02646081333333 938.2404964946829 L 199.02646081333333 928.439374514683 L 132.55493223333332 928.439374514683" stroke-miterlimit="10" stroke-width="2.3336004714285714" stroke-dasharray=""/><text fill="black" stroke="none" font-family="sans-serif" font-size="8.8pt" font-style="normal" font-weight="bold" text-decoration="normal" x="148.8901355333333" y="941.507537154683" text-anchor="start" dominant-baseline="alphabetic" xml:space="preserve">loop</text><text fill="black" stroke="none" font-family="sans-serif" font-size="8.8pt" font-style="normal" font-weight="bold" text-decoration="normal" x="215.36166411333332" y="941.507537154683" text-anchor="start" dominant-baseline="alphabetic" xml:space="preserve">[WHILE NOT IsGenerationFinished]</text></g></g><g/><g/><g/><g/></g></svg>