<svg version="1.1" xmlns="http://www.w3.org/2000/svg" xmlns:xlink="http://www.w3.org/1999/xlink" width="766" height="1455"><defs/><g><g/><g/><g/><g/><g/><g/><g/><g/><g/><g/><g/><g/><g/><g/><g/><g/><g/><g/><g/><g/><g><rect fill="white" stroke="none" x="0" y="0" width="766" height="1455"/></g><g><text fill="black" stroke="none" font-family="sans-serif" font-size="16.5pt" font-style="normal" font-weight="normal" text-decoration="normal" x="124.57271549000518" y="24.50280495" text-anchor="start" dominant-baseline="alphabetic" xml:space="preserve">Evaluation with SortingGenerationEvaluationStrategy</text></g><g/><g><path fill="none" stroke="black" paint-order="fill stroke markers" d=" M 197.8957454333333 95.887643371 L 197.8957454333333 1455.8652275661068" stroke-miterlimit="10" stroke-width="1.3612669416666667" stroke-dasharray="12.565541,5.445067766666667"/><path fill="none" stroke="black" paint-order="fill stroke markers" d=" M 462.17882145 95.887643371 L 462.17882145 1455.8652275661068" stroke-miterlimit="10" stroke-width="1.3612669416666667" stroke-dasharray="12.565541,5.445067766666667"/><path fill="none" stroke="black" paint-order="fill stroke markers" d=" M 627.961415911 95.887643371 L 627.961415911 1455.8652275661068" stroke-miterlimit="10" stroke-width="1.3612669416666667" stroke-dasharray="12.565541,5.445067766666667"/></g><g><path fill="none" stroke="none"/><g><path fill="white" stroke="black" paint-order="fill stroke markers" d=" M 94.1720498528333 51.782594461 L 301.6194410138333 51.782594461 L 301.6194410138333 95.887643371 L 94.1720498528333 95.887643371 L 94.1720498528333 51.782594461 Z" stroke-miterlimit="10" stroke-width="2.613632528" stroke-dasharray=""/></g><g><g/><text fill="black" stroke="none" font-family="sans-serif" font-size="11pt" font-style="normal" font-weight="normal" text-decoration="normal" x="111.8957454333333" y="79.55244007099999" text-anchor="start" dominant-baseline="alphabetic" xml:space="preserve">GenerationEvaluationActor</text></g><path fill="none" stroke="none"/><g><path fill="white" stroke="black" paint-order="fill stroke markers" d=" M 380.95512586949997 51.782594461 L 543.4025170305 51.782594461 L 543.4025170305 95.887643371 L 380.95512586949997 95.887643371 L 380.95512586949997 51.782594461 Z" stroke-miterlimit="10" stroke-width="2.613632528" stroke-dasharray=""/></g><g><g/><text fill="black" stroke="none" font-family="sans-serif" font-size="11pt" font-style="normal" font-weight="normal" text-decoration="normal" x="398.67882145" y="79.55244007099999" text-anchor="start" dominant-baseline="alphabetic" xml:space="preserve">ResultStorageActor</text></g><path fill="none" stroke="none"/><g><path fill="white" stroke="black" paint-order="fill stroke markers" d=" M 559.7377203305 51.782594461 L 696.1851114915 51.782594461 L 696.1851114915 95.887643371 L 559.7377203305 95.887643371 L 559.7377203305 51.782594461 Z" stroke-miterlimit="10" stroke-width="2.613632528" stroke-dasharray=""/></g><g><g/><text fill="black" stroke="none" font-family="sans-serif" font-size="11pt" font-style="normal" font-weight="normal" text-decoration="normal" x="577.461415911" y="79.55244007099999" text-anchor="start" dominant-baseline="alphabetic" xml:space="preserve">EvaluationActor</text></g></g><g><path fill="white" stroke="black" paint-order="fill stroke markers" d=" M 189.7281437833333 273.94135934099995 L 206.0633470833333 273.94135934099995 L 206.0633470833333 670.8867995309998 L 189.7281437833333 670.8867995309998 L 189.7281437833333 273.94135934099995" stroke-miterlimit="10" stroke-width="1.3612669416666667" stroke-dasharray=""/><path fill="white" stroke="black" paint-order="fill stroke markers" d=" M 454.0112198 425.85875003099994 L 470.3464231 425.85875003099994 L 470.3464231 471.59731927099995 L 454.0112198 471.59731927099995 L 454.0112198 425.85875003099994" stroke-miterlimit="10" stroke-width="1.3612669416666667" stroke-dasharray=""/><path fill="white" stroke="black" paint-order="fill stroke markers" d=" M 619.793814261 670.8867995309998 L 636.1290175610001 670.8867995309998 L 636.1290175610001 702.0668877740841 L 619.793814261 702.0668877740841 L 619.793814261 670.8867995309998" stroke-miterlimit="10" stroke-width="1.3612669416666667" stroke-dasharray=""/><path fill="white" stroke="black" paint-order="fill stroke markers" d=" M 189.7281437833333 734.7372943740841 L 206.0633470833333 734.7372943740841 L 206.0633470833333 1336.618243476107 L 189.7281437833333 1336.618243476107 L 189.7281437833333 734.7372943740841" stroke-miterlimit="10" stroke-width="1.3612669416666667" stroke-dasharray=""/><path fill="white" stroke="black" paint-order="fill stroke markers" d=" M 619.793814261 907.890449354084 L 636.1290175610001 907.890449354084 L 636.1290175610001 1166.732129156107 L 619.793814261 1166.732129156107 L 619.793814261 907.890449354084" stroke-miterlimit="10" stroke-width="1.3612669416666667" stroke-dasharray=""/><path fill="white" stroke="black" paint-order="fill stroke markers" d=" M 154.0264608133333 143.259732941 L 154.0264608133333 143.259732941 A 14.70168297 14.70168297 0 0 1 168.7281437833333 128.558049971 L 227.0633470833333 128.558049971 L 227.0633470833333 128.558049971 A 14.70168297 14.70168297 0 0 1 241.7650300533333 143.259732941 L 241.7650300533333 151.42733459099998 L 241.7650300533333 151.42733459099998 A 14.70168297 14.70168297 0 0 1 227.0633470833333 166.12901756099998 L 168.7281437833333 166.12901756099998 L 168.7281437833333 166.12901756099998 A 14.70168297 14.70168297 0 0 1 154.0264608133333 151.42733459099998 L 154.0264608133333 143.259732941" stroke-miterlimit="10" stroke-width="1.3612669416666667" stroke-dasharray=""/><g><text fill="black" stroke="none" font-family="sans-serif" font-size="11pt" font-style="normal" font-weight="normal" text-decoration="normal" x="176.8957454333333" y="151.42733459099995" text-anchor="start" dominant-baseline="alphabetic" xml:space="preserve">Ready</text></g><path fill="white" stroke="black" paint-order="fill stroke markers" d=" M 584.0921312910001 205.333505481 L 584.0921312910001 205.333505481 A 14.70168297 14.70168297 0 0 1 598.7938142610001 190.631822511 L 657.1290175610001 190.631822511 L 657.1290175610001 190.631822511 A 14.70168297 14.70168297 0 0 1 671.830700531 205.333505481 L 671.830700531 213.50110713099997 L 671.830700531 213.50110713099997 A 14.70168297 14.70168297 0 0 1 657.1290175610001 228.20279010099998 L 598.7938142610001 228.20279010099998 L 598.7938142610001 228.20279010099998 A 14.70168297 14.70168297 0 0 1 584.0921312910001 213.50110713099997 L 584.0921312910001 205.333505481" stroke-miterlimit="10" stroke-width="1.3612669416666667" stroke-dasharray=""/><g><text fill="black" stroke="none" font-family="sans-serif" font-size="11pt" font-style="normal" font-weight="normal" text-decoration="normal" x="606.961415911" y="213.50110713099994" text-anchor="start" dominant-baseline="alphabetic" xml:space="preserve">Ready</text></g><g><g><rect fill="white" stroke="none" x="27.49759222166665" y="252.70559505099996" width="142.90056099" height="21.23576429"/></g><text fill="blue" stroke="none" font-family="sans-serif" font-size="11pt" font-style="normal" font-weight="normal" text-decoration="normal" x="29.94787271666665" y="267.40727802099997" text-anchor="start" dominant-baseline="alphabetic" xml:space="preserve">GenerationEvaluation</text></g><g><path fill="none" stroke="blue" paint-order="fill stroke markers" d=" M 8.16760165 273.94135934099995 L 176.27882639966663 273.94135934099995" stroke-miterlimit="10" stroke-width="1.3612669416666667" stroke-dasharray=""/><g transform="translate(189.7281437833333,273.94135934099995) translate(-189.7281437833333,-273.94135934099995)"><path fill="blue" stroke="none" paint-order="stroke fill markers" d=" M 176.11547436666663 267.1350246326666 L 189.7281437833333 273.94135934099995 L 176.11547436666663 280.7476940493333 Z"/></g></g><path fill="white" stroke="black" paint-order="fill stroke markers" d=" M 79.0264608133333 313.1458472609999 L 79.0264608133333 313.1458472609999 A 14.70168297 14.70168297 0 0 1 93.72814378333331 298.44416429099994 L 302.0633470833333 298.44416429099994 L 302.0633470833333 298.44416429099994 A 14.70168297 14.70168297 0 0 1 316.7650300533333 313.1458472609999 L 316.7650300533333 321.31344891099997 L 316.7650300533333 321.31344891099997 A 14.70168297 14.70168297 0 0 1 302.0633470833333 336.01513188099995 L 93.72814378333331 336.01513188099995 L 93.72814378333331 336.01513188099995 A 14.70168297 14.70168297 0 0 1 79.0264608133333 321.31344891099997 L 79.0264608133333 313.1458472609999" stroke-miterlimit="10" stroke-width="1.3612669416666667" stroke-dasharray=""/><g><text fill="black" stroke="none" font-family="sans-serif" font-size="11pt" font-style="normal" font-weight="normal" text-decoration="normal" x="101.8957454333333" y="321.3134489109999" text-anchor="start" dominant-baseline="alphabetic" xml:space="preserve">FetchingResultsFromStorage</text></g><g><g><rect fill="white" stroke="none" x="238.08700294666667" y="404.6229857409999" width="183.90056099" height="21.23576429"/></g><text fill="blue" stroke="none" font-family="sans-serif" font-size="11pt" font-style="normal" font-weight="normal" text-decoration="normal" x="240.53728344166666" y="419.3246687109999" text-anchor="start" dominant-baseline="alphabetic" xml:space="preserve">GenomeResultsRequest(g)</text></g><g><path fill="none" stroke="blue" paint-order="fill stroke markers" d=" M 206.0633470833333 425.85875003099994 L 440.56190241633334 425.85875003099994" stroke-miterlimit="10" stroke-width="1.3612669416666667" stroke-dasharray=""/><g transform="translate(454.0112198,425.85875003099994) translate(-454.0112198,-425.85875003099994)"><path fill="blue" stroke="none" paint-order="stroke fill markers" d=" M 440.3985503833333 419.0524153226666 L 454.0112198 425.85875003099994 L 440.3985503833333 432.6650847393333 Z"/></g></g><g><g><rect fill="white" stroke="none" x="265.58700294666664" y="450.3615549809999" width="128.90056099" height="21.23576429"/></g><text fill="blue" stroke="none" font-family="sans-serif" font-size="11pt" font-style="normal" font-weight="normal" text-decoration="normal" x="268.03728344166666" y="465.0632379509999" text-anchor="start" dominant-baseline="alphabetic" xml:space="preserve">GenomeResults(g)</text></g><g><path fill="none" stroke="blue" paint-order="fill stroke markers" d=" M 454.0112198 471.59731927099995 L 219.51266446699998 471.59731927099995" stroke-miterlimit="10" stroke-width="1.3612669416666667" stroke-dasharray=""/><g transform="translate(206.0633470833333,471.59731927099995) translate(-206.0633470833333,-471.59731927099995)"><path fill="blue" stroke="none" paint-order="stroke fill markers" d=" M 219.67601649999997 464.7909845626666 L 206.0633470833333 471.59731927099995 L 219.67601649999997 478.4036539793333 Z"/></g></g><g><g><rect fill="white" stroke="none" x="225.39333765499998" y="496.10012422099993" width="216.90056099" height="21.23576429"/></g><text fill="black" stroke="none" font-family="sans-serif" font-size="11pt" font-style="normal" font-weight="normal" text-decoration="normal" x="227.84361814999997" y="510.8018071909999" text-anchor="start" dominant-baseline="alphabetic" xml:space="preserve">Update GenomeStats(g,Results)</text></g><g><path fill="none" stroke="black" paint-order="fill stroke markers" d=" M 206.0633470833333 517.3358885109999 L 271.4041602833333 517.3358885109999 L 271.4041602833333 538.5716528009999 L 219.51266446699998 538.5716528009999" stroke-miterlimit="10" stroke-width="1.3612669416666667" stroke-dasharray=""/><g transform="translate(206.0633470833333,538.5716528009999) translate(-206.0633470833333,-538.5716528009999)"><path fill="black" stroke="none" paint-order="stroke fill markers" d=" M 219.67601649999997 531.7653180926666 L 206.0633470833333 538.5716528009999 L 219.67601649999997 545.3779875093333 Z"/></g></g><path fill="white" stroke="black" paint-order="fill stroke markers" d=" M 148.0264608133333 602.2789456709999 L 148.0264608133333 602.2789456709999 A 14.70168297 14.70168297 0 0 1 162.7281437833333 587.5772627009999 L 233.0633470833333 587.5772627009999 L 233.0633470833333 587.5772627009999 A 14.70168297 14.70168297 0 0 1 247.7650300533333 602.2789456709999 L 247.7650300533333 610.4465473209999 L 247.7650300533333 610.4465473209999 A 14.70168297 14.70168297 0 0 1 233.0633470833333 625.1482302909999 L 162.7281437833333 625.1482302909999 L 162.7281437833333 625.1482302909999 A 14.70168297 14.70168297 0 0 1 148.0264608133333 610.4465473209999 L 148.0264608133333 602.2789456709999" stroke-miterlimit="10" stroke-width="1.3612669416666667" stroke-dasharray=""/><g><text fill="black" stroke="none" font-family="sans-serif" font-size="11pt" font-style="normal" font-weight="normal" text-decoration="normal" x="170.8957454333333" y="610.4465473209999" text-anchor="start" dominant-baseline="alphabetic" xml:space="preserve">Working</text></g><g><g><rect fill="white" stroke="none" x="398.4783001771666" y="649.6510352409998" width="28.90056099" height="21.23576429"/></g><text fill="blue" stroke="none" font-family="sans-serif" font-size="11pt" font-style="normal" font-weight="normal" text-decoration="normal" x="400.9285806721666" y="664.3527182109998" text-anchor="start" dominant-baseline="alphabetic" xml:space="preserve">Poll</text></g><g><path fill="none" stroke="blue" paint-order="fill stroke markers" d=" M 206.0633470833333 670.8867995309998 L 606.3444968773333 670.8867995309998" stroke-miterlimit="10" stroke-width="1.3612669416666667" stroke-dasharray=""/><g transform="translate(619.793814261,670.8867995309998) translate(-619.793814261,-670.8867995309998)"><path fill="blue" stroke="none" paint-order="stroke fill markers" d=" M 606.1811448443333 664.0804648226665 L 619.793814261 670.8867995309998 L 606.1811448443333 677.6931342393332 Z"/></g></g><g><g><rect fill="white" stroke="none" x="387.9783001771666" y="695.3896044809999" width="49.90056099" height="21.23576429"/></g><text fill="blue" stroke="none" font-family="sans-serif" font-size="11pt" font-style="normal" font-weight="normal" text-decoration="normal" x="390.4285806721666" y="710.0912874509999" text-anchor="start" dominant-baseline="alphabetic" xml:space="preserve">Accept</text></g><g><path fill="none" stroke="blue" paint-order="fill stroke markers" d=" M 619.793814261 702.0668877740841 L 219.47092767597417 733.6785589310022" stroke-miterlimit="10" stroke-width="1.3612669416666667" stroke-dasharray="6.53408132"/><g transform="translate(206.0633470833333,734.7372943740841) rotate(-4.515017222972443,0,0) translate(-206.0633470833333,-734.7372943740841)"><path fill="blue" stroke="none" paint-order="stroke fill markers" d=" M 219.67601649999997 727.9309596657507 L 206.0633470833333 734.7372943740841 L 219.67601649999997 741.5436290824174 Z"/><g transform="rotate(4.515017222972443,0,0)"/></g></g><g><g><rect fill="white" stroke="none" x="225.39333765499998" y="803.345148234084" width="86.90056099" height="21.23576429"/></g><g><rect fill="white" stroke="none" x="225.39333765499998" y="819.680351534084" width="149.90056099" height="21.23576429"/></g><text fill="black" stroke="none" font-family="sans-serif" font-size="11pt" font-style="normal" font-weight="normal" text-decoration="normal" x="227.84361814999997" y="818.046831204084" text-anchor="start" dominant-baseline="alphabetic" xml:space="preserve">Get next GIP</text><text fill="black" stroke="none" font-family="sans-serif" font-size="11pt" font-style="normal" font-weight="normal" text-decoration="normal" x="227.84361814999997" y="834.382034504084" text-anchor="start" dominant-baseline="alphabetic" xml:space="preserve">[GenomeInstancePair]</text></g><g><path fill="none" stroke="black" paint-order="fill stroke markers" d=" M 206.0633470833333 840.916115824084 L 271.4041602833333 840.916115824084 L 271.4041602833333 862.1518801140841 L 219.51266446699998 862.1518801140841" stroke-miterlimit="10" stroke-width="1.3612669416666667" stroke-dasharray=""/><g transform="translate(206.0633470833333,862.1518801140841) translate(-206.0633470833333,-862.1518801140841)"><path fill="black" stroke="none" paint-order="stroke fill markers" d=" M 219.67601649999997 855.3455454057507 L 206.0633470833333 862.1518801140841 L 219.67601649999997 868.9582148224174 Z"/></g></g><g><g><rect fill="white" stroke="none" x="291.4783001771666" y="886.654685064084" width="242.90056099" height="21.23576429"/></g><text fill="blue" stroke="none" font-family="sans-serif" font-size="11pt" font-style="normal" font-weight="normal" text-decoration="normal" x="293.9285806721666" y="901.356368034084" text-anchor="start" dominant-baseline="alphabetic" xml:space="preserve">GenomeInstancePairEvaluation(GIP)</text></g><g><path fill="none" stroke="blue" paint-order="fill stroke markers" d=" M 206.0633470833333 907.890449354084 L 606.3444968773333 907.890449354084" stroke-miterlimit="10" stroke-width="1.3612669416666667" stroke-dasharray=""/><g transform="translate(619.793814261,907.890449354084) translate(-619.793814261,-907.890449354084)"><path fill="blue" stroke="none" paint-order="stroke fill markers" d=" M 606.1811448443333 901.0841146457507 L 619.793814261 907.890449354084 L 606.1811448443333 914.6967840624174 Z"/></g></g><path fill="white" stroke="black" paint-order="fill stroke markers" d=" M 571.5921312910001 947.0949372740839 L 571.5921312910001 947.0949372740839 A 14.70168297 14.70168297 0 0 1 586.2938142610001 932.3932543040839 L 669.6290175610001 932.3932543040839 L 669.6290175610001 932.3932543040839 A 14.70168297 14.70168297 0 0 1 684.330700531 947.0949372740839 L 684.330700531 955.262538924084 L 684.330700531 955.262538924084 A 14.70168297 14.70168297 0 0 1 669.6290175610001 969.964221894084 L 586.2938142610001 969.964221894084 L 586.2938142610001 969.964221894084 A 14.70168297 14.70168297 0 0 1 571.5921312910001 955.262538924084 L 571.5921312910001 947.0949372740839" stroke-miterlimit="10" stroke-width="1.3612669416666667" stroke-dasharray=""/><g><text fill="black" stroke="none" font-family="sans-serif" font-size="11pt" font-style="normal" font-weight="normal" text-decoration="normal" x="594.461415911" y="955.262538924084" text-anchor="start" dominant-baseline="alphabetic" xml:space="preserve">Evaluating</text></g><g><g><rect fill="white" stroke="none" x="655.4590081326668" y="994.4670268440839" width="88.90056099" height="21.23576429"/></g><text fill="black" stroke="none" font-family="sans-serif" font-size="11pt" font-style="normal" font-weight="normal" text-decoration="normal" x="657.9092886276668" y="1009.1687098140839" text-anchor="start" dominant-baseline="alphabetic" xml:space="preserve">Evaluate GIP</text></g><g><path fill="none" stroke="black" paint-order="fill stroke markers" d=" M 636.1290175610001 1015.702791134084 L 701.469830761 1015.702791134084 L 701.469830761 1036.938555424084 L 648.1584527293394 1063.5942444399143" stroke-miterlimit="10" stroke-width="1.3612669416666667" stroke-dasharray=""/><g transform="translate(636.1290175610001,1069.608962024084) rotate(-26.56505117707799,0,0) translate(-636.1290175610001,-1069.608962024084)"><path fill="black" stroke="none" paint-order="stroke fill markers" d=" M 649.7416869776667 1062.8026273157507 L 636.1290175610001 1069.608962024084 L 649.7416869776667 1076.4152967324171 Z"/><g transform="rotate(26.56505117707799,0,0)"/></g></g><path fill="white" stroke="black" paint-order="fill stroke markers" d=" M 584.0921312910001 1108.813449944084 L 584.0921312910001 1108.813449944084 A 14.70168297 14.70168297 0 0 1 598.7938142610001 1094.1117669740838 L 657.1290175610001 1094.1117669740838 L 657.1290175610001 1094.1117669740838 A 14.70168297 14.70168297 0 0 1 671.830700531 1108.813449944084 L 671.830700531 1116.9810515940837 L 671.830700531 1116.9810515940837 A 14.70168297 14.70168297 0 0 1 657.1290175610001 1131.6827345640838 L 598.7938142610001 1131.6827345640838 L 598.7938142610001 1131.6827345640838 A 14.70168297 14.70168297 0 0 1 584.0921312910001 1116.9810515940837 L 584.0921312910001 1108.813449944084" stroke-miterlimit="10" stroke-width="1.3612669416666667" stroke-dasharray=""/><g><text fill="black" stroke="none" font-family="sans-serif" font-size="11pt" font-style="normal" font-weight="normal" text-decoration="normal" x="606.961415911" y="1116.981051594084" text-anchor="start" dominant-baseline="alphabetic" xml:space="preserve">Ready</text></g><g><g><rect fill="white" stroke="none" x="338.9783001771666" y="1156.185539514084" width="147.90056099" height="21.23576429"/></g><text fill="blue" stroke="none" font-family="sans-serif" font-size="11pt" font-style="normal" font-weight="normal" text-decoration="normal" x="341.4285806721666" y="1170.887222484084" text-anchor="start" dominant-baseline="alphabetic" xml:space="preserve">EvaluationResult(GIP)</text></g><g><path fill="none" stroke="blue" paint-order="fill stroke markers" d=" M 619.793814261 1166.732129156107 L 219.47092767597417 1198.343800313025" stroke-miterlimit="10" stroke-width="1.3612669416666667" stroke-dasharray="6.53408132"/><g transform="translate(206.0633470833333,1199.402535756107) rotate(-4.515017222972443,0,0) translate(-206.0633470833333,-1199.402535756107)"><path fill="blue" stroke="none" paint-order="stroke fill markers" d=" M 219.67601649999997 1192.5962010477738 L 206.0633470833333 1199.402535756107 L 219.67601649999997 1206.2088704644402 Z"/><g transform="rotate(4.515017222972443,0,0)"/></g></g><g><g><rect fill="white" stroke="none" x="225.39333765499998" y="1223.905340706107" width="222.90056099" height="21.23576429"/></g><text fill="black" stroke="none" font-family="sans-serif" font-size="11pt" font-style="normal" font-weight="normal" text-decoration="normal" x="227.84361814999997" y="1238.607023676107" text-anchor="start" dominant-baseline="alphabetic" xml:space="preserve">Update GenomeStats(GIP,Result)</text></g><g><path fill="none" stroke="black" paint-order="fill stroke markers" d=" M 206.0633470833333 1245.141104996107 L 271.4041602833333 1245.141104996107 L 271.4041602833333 1266.376869286107 L 219.51266446699998 1266.376869286107" stroke-miterlimit="10" stroke-width="1.3612669416666667" stroke-dasharray=""/><g transform="translate(206.0633470833333,1266.376869286107) translate(-206.0633470833333,-1266.376869286107)"><path fill="black" stroke="none" paint-order="stroke fill markers" d=" M 219.67601649999997 1259.5705345777737 L 206.0633470833333 1266.376869286107 L 219.67601649999997 1273.1832039944402 Z"/></g></g><g><g><rect fill="white" stroke="none" x="61.99759222166665" y="1315.382479186107" width="73.90056099" height="21.23576429"/></g><text fill="blue" stroke="none" font-family="sans-serif" font-size="11pt" font-style="normal" font-weight="normal" text-decoration="normal" x="64.44787271666665" y="1330.0841621561071" text-anchor="start" dominant-baseline="alphabetic" xml:space="preserve">SortResult</text></g><g><path fill="none" stroke="blue" paint-order="fill stroke markers" d=" M 189.7281437833333 1336.618243476107 L 21.61691903366667 1336.618243476107" stroke-miterlimit="10" stroke-width="1.3612669416666667" stroke-dasharray="6.53408132"/><g transform="translate(8.16760165,1336.618243476107) translate(-8.16760165,-1336.618243476107)"><path fill="blue" stroke="none" paint-order="stroke fill markers" d=" M 21.780271066666668 1329.8119087677737 L 8.16760165 1336.618243476107 L 21.780271066666668 1343.4245781844402 Z"/></g></g><path fill="white" stroke="black" paint-order="fill stroke markers" d=" M 154.0264608133333 1375.822731396107 L 154.0264608133333 1375.822731396107 A 14.70168297 14.70168297 0 0 1 168.7281437833333 1361.1210484261069 L 227.0633470833333 1361.1210484261069 L 227.0633470833333 1361.1210484261069 A 14.70168297 14.70168297 0 0 1 241.7650300533333 1375.822731396107 L 241.7650300533333 1383.9903330461068 L 241.7650300533333 1383.9903330461068 A 14.70168297 14.70168297 0 0 1 227.0633470833333 1398.692016016107 L 168.7281437833333 1398.692016016107 L 168.7281437833333 1398.692016016107 A 14.70168297 14.70168297 0 0 1 154.0264608133333 1383.9903330461068 L 154.0264608133333 1375.822731396107" stroke-miterlimit="10" stroke-width="1.3612669416666667" stroke-dasharray=""/><g><text fill="black" stroke="none" font-family="sans-serif" font-size="11pt" font-style="normal" font-weight="normal" text-decoration="normal" x="176.8957454333333" y="1383.990333046107" text-anchor="start" dominant-baseline="alphabetic" xml:space="preserve">Ready</text></g><g><g/><path fill="none" stroke="black" paint-order="fill stroke markers" d=" M 132.55493223333332 360.51793683099993 L 519.352033 360.51793683099993 L 519.352033 563.074457751 L 132.55493223333332 563.074457751 L 132.55493223333332 360.51793683099993 Z" stroke-miterlimit="10" stroke-width="2.3336004714285714" stroke-dasharray=""/><path fill="white" stroke="black" paint-order="fill stroke markers" d=" M 132.55493223333332 360.51793683099993 L 132.55493223333332 380.12018079099994 L 189.22533883333332 380.12018079099994 L 199.02646081333333 370.31905881099993 L 199.02646081333333 360.51793683099993 L 132.55493223333332 360.51793683099993" stroke-miterlimit="10" stroke-width="2.3336004714285714" stroke-dasharray=""/><text fill="black" stroke="none" font-family="sans-serif" font-size="8.8pt" font-style="normal" font-weight="bold" text-decoration="normal" x="148.8901355333333" y="373.58609947099995" text-anchor="start" dominant-baseline="alphabetic" xml:space="preserve">loop</text><text fill="black" stroke="none" font-family="sans-serif" font-size="8.8pt" font-style="normal" font-weight="bold" text-decoration="normal" x="215.36166411333332" y="373.58609947099995" text-anchor="start" dominant-baseline="alphabetic" xml:space="preserve">[FORALL g in Genomes]</text></g><g><g/><path fill="none" stroke="black" paint-order="fill stroke markers" d=" M 132.55493223333332 759.2400993240841 L 750.0768902776667 759.2400993240841 L 750.0768902776667 1290.879674236107 L 132.55493223333332 1290.879674236107 L 132.55493223333332 759.2400993240841 Z" stroke-miterlimit="10" stroke-width="2.3336004714285714" stroke-dasharray=""/><path fill="white" stroke="black" paint-order="fill stroke markers" d=" M 132.55493223333332 759.2400993240841 L 132.55493223333332 778.8423432840841 L 189.22533883333332 778.8423432840841 L 199.02646081333333 769.041221304084 L 199.02646081333333 759.2400993240841 L 132.55493223333332 759.2400993240841" stroke-miterlimit="10" stroke-width="2.3336004714285714" stroke-dasharray=""/><text fill="black" stroke="none" font-family="sans-serif" font-size="8.8pt" font-style="normal" font-weight="bold" text-decoration="normal" x="148.8901355333333" y="772.3082619640841" text-anchor="start" dominant-baseline="alphabetic" xml:space="preserve">loop</text><text fill="black" stroke="none" font-family="sans-serif" font-size="8.8pt" font-style="normal" font-weight="bold" text-decoration="normal" x="215.36166411333332" y="772.3082619640841" text-anchor="start" dominant-baseline="alphabetic" xml:space="preserve">[WHILE NOT IsGenerationFinished]</text></g></g><g/><g/><g/></g></svg>